<svg xmlns="http://www.w3.org/2000/svg" xmlns:xlink="http://www.w3.org/1999/xlink" version="1.1" width="1000" height="1000" viewBox="0 0 1000 1000" xml:space="preserve">
<desc>Created with Fabric.js 3.5.0</desc>
<defs>
</defs>
<rect x="0" y="0" width="100%" height="100%" fill="#ffffff"/>
<g transform="matrix(4.2284 0 0 4.2284 363.865 538.4426)" id="330544">
<path style="stroke: rgb(21,96,189); stroke-width: 1; stroke-dasharray: none; stroke-linecap: butt; stroke-dashoffset: 0; stroke-linejoin: miter; stroke-miterlimit: 10; is-custom-font: none; font-file-url: none; fill: rgb(21,96,189); fill-rule: nonzero; opacity: 1;" transform=" translate(-188.0081, -346.0138)" d="M 250.69 361.74 c -1.4 0.57 -2.83 1.02 -4.3 1.36 c 0.39 2.02 0.19 4.03 -0.41 6.04 c -0.74 2.5 -2.12 4.62 -3.93 6.46 c -8.86 8.91 -25.64 8.61 -34.15 -0.61 c -0.52 -0.57 -0.99 -1.2 -1.61 -1.96 c 9.06 -1.06 16.31 -4.87 21.82 -11.49 c -0.02 -0.01 -0.03 -0.01 -0.05 -0.02 c -1.41 -0.6 -2.73 -1.34 -3.94 -2.19 c -9.11 10.42 -25.13 12.44 -36.58 3.81 c -0.35 -0.26 -0.69 -0.55 -1.05 -0.8 c -1.13 -0.75 -2.41 -0.59 -3.17 0.41 c -0.77 1 -0.63 2.25 0.46 3.15 c 0.9 0.75 1.88 1.43 2.91 2.2 c -2.98 3.86 -6.8 6.28 -11.56 6.99 c -11.32 1.68 -20.94 -6.78 -20.86 -18.26 c 0 -0.31 0.02 -0.61 0 -0.92 c -0.1 -1.26 -1.03 -2.16 -2.21 -2.17 c -1.18 -0.01 -2.18 0.88 -2.24 2.14 c -0.08 1.17 -0.02 2.35 -0.02 3.51 c -6.36 1.01 -15.57 -5.44 -16.82 -11.8 c 0.71 0.38 1.33 0.75 1.99 1.08 c 1.37 0.69 2.68 0.36 3.3 -0.8 c 0.61 -1.17 0.16 -2.42 -1.22 -3.16 c -4.11 -2.2 -6.63 -5.55 -7.39 -10.17 c -1.11 -6.84 3.43 -13.55 10.19 -15.12 c 0.47 -0.1 0.95 -0.17 1.41 -0.3 c 1.22 -0.34 1.89 -1.39 1.66 -2.62 c -0.21 -1.15 -1.31 -1.98 -2.53 -1.78 c -1.16 0.18 -2.3 0.51 -3.62 0.79 c 0.46 -1.98 1.36 -3.6 2.56 -5.06 c 3.81 -4.59 9.99 -6.15 15.52 -3.94 c 0.32 0.12 0.64 0.31 0.97 0.41 c 1.15 0.32 2.25 -0.2 2.73 -1.27 c 0.46 -1.07 0.08 -2.21 -0.98 -2.83 c -0.37 -0.22 -0.79 -0.37 -1.2 -0.54 c -0.4 -0.16 -0.81 -0.3 -1.43 -0.52 c 0.38 -0.47 0.68 -0.87 1.02 -1.22 c 3.6 -3.69 8.82 -4.81 13.42 -3.45 c 1.09 0.32 2.14 0.77 3.12 1.36 c 1.27 0.77 2.43 1.77 3.43 2.98 c 0.28 0.34 0.52 0.71 0.83 1.03 c 0.91 0.95 2.11 1.06 3.07 0.3 c 0.94 -0.73 1.16 -2.01 0.41 -3.06 c -0.76 -1.06 -1.66 -2.02 -2.5 -3.03 c 3.21 -2.75 10.18 -3.21 14.4 -0.92 c -0.12 0.11 -0.23 0.24 -0.36 0.32 c -1.47 1.02 -1.88 2.26 -1.11 3.42 c 0.77 1.15 1.99 1.19 3.61 0.36 c 1.76 -0.9 3.54 -1.82 5.4 -2.37 c 10.41 -3.09 21.37 1.63 26.38 11.24 c 0.23 0.42 0.41 0.88 0.71 1.26 c 0.68 0.94 1.81 1.19 2.81 0.7 c 1.03 -0.54 1.52 -1.7 1.04 -2.81 c -0.46 -1.08 -1.06 -2.1 -1.74 -3.42 c 4.87 1.71 8.61 4.43 11.34 8.43 c 0.78 1.15 1.45 2.3 2 3.47 c 1.78 0.24 3.55 0.62 5.28 1.15 c -3.1 -9.8 -11.57 -17.1 -22.4 -18.53 c -0.66 -0.09 -1.35 -0.4 -1.87 -0.81 c -7.39 -5.79 -15.62 -7.53 -24.68 -5.1 c -0.86 0.24 -1.46 0.12 -2.2 -0.31 c -7.34 -4.21 -14.63 -4.07 -21.8 0.44 c -0.66 0.42 -1.17 0.55 -1.86 0.33 c -0.1 -0.03 -0.19 -0.07 -0.29 -0.11 c -0.94 -0.39 -1.89 -0.7 -2.84 -0.93 c -6.83 -1.61 -13.96 0.82 -18.28 6.6 c -1.06 1.41 -2.15 1.95 -3.84 2.1 c -8.03 0.74 -15.01 7.91 -15.6 15.95 c -0.07 0.9 -0.34 1.52 -1.02 2.13 c -5.77 5.2 -7.46 13.75 -4.22 20.78 c 0.37 0.81 0.58 1.73 0.66 2.62 c 0.73 9.04 5.21 15.49 13.33 19.4 c 3.18 1.54 6.61 2.07 10.16 1.95 c 2.37 6.9 6.87 11.74 13.65 14.31 c 6.81 2.59 13.35 1.76 19.65 -1.85 c 0.22 0.49 0.38 0.9 0.58 1.28 c 1.97 3.93 5.14 6.18 9.54 6.5 c 1.34 0.11 2.3 0.52 3.16 1.53 c 4.05 4.71 8.12 9.37 12.22 14.02 c 2.05 2.34 5.04 3.11 7.78 2.09 c 2.74 -1.02 4.46 -3.56 4.49 -6.68 c 0.02 -2.54 0 -5.1 0.01 -7.65 c 0 -0.37 0.05 -0.74 0.08 -1.16 c 0.83 0.06 1.54 0.1 2.23 0.12 c 6.66 0.2 12.8 -1.44 18.23 -5.38 C 249.05 376.35 252.15 369.09 250.69 361.74 z M 217.36 386.74 c -0.1 1.4 -0.03 2.81 -0.03 4.22 c 0 1.36 -0.02 2.72 0.01 4.09 c 0.02 1.2 -0.38 2.2 -1.57 2.64 c -1.22 0.46 -2.18 -0.02 -3.02 -0.98 c -4.07 -4.69 -8.17 -9.34 -12.21 -14.01 c -1.59 -1.85 -3.5 -2.8 -5.96 -2.85 c -3.21 -0.07 -5.79 -2.31 -6.38 -5.45 c -0.1 -0.51 0.17 -1.14 0.43 -1.62 c 1.22 -2.3 2.86 -2.45 5.2 -1.4 c 1.92 0.86 4.16 0.98 6.24 1.52 c 0.54 0.15 1.19 0.53 1.48 1.01 c 3.4 5.68 8.24 9.51 14.6 11.35 C 217.03 385.48 217.41 385.77 217.36 386.74 z" stroke-linecap="round"/>
</g>
<g transform="matrix(4.2284 0 0 4.2284 363.9304 529.2275)" id="806664">
<path style="stroke: rgb(21,96,189); stroke-width: 1; stroke-dasharray: none; stroke-linecap: butt; stroke-dashoffset: 0; stroke-linejoin: miter; stroke-miterlimit: 10; is-custom-font: none; font-file-url: none; fill: rgb(21,96,189); fill-rule: nonzero; opacity: 1;" transform=" translate(-188.0256, -343.8366)" d="M 188.02 350.61 c -7.94 -0.37 -14.47 -3.47 -19.51 -9.59 c -1.06 -1.29 -0.98 -2.6 0.14 -3.47 c 1.05 -0.82 2.31 -0.6 3.33 0.63 c 3.61 4.34 8.18 7.04 13.8 7.68 c 7.18 0.81 13.04 -1.91 17.84 -7.15 c 0.21 -0.23 0.38 -0.48 0.59 -0.71 c 0.99 -1.07 2.28 -1.22 3.27 -0.37 c 1 0.85 1.1 2.12 0.16 3.28 C 202.57 347.14 195.96 350.27 188.02 350.61 z" stroke-linecap="round"/>
</g>
<g transform="matrix(4.2284 0 0 4.2284 306.8931 429.1833)" id="513253">
<path style="stroke: rgb(21,96,189); stroke-width: 1; stroke-dasharray: none; stroke-linecap: butt; stroke-dashoffset: 0; stroke-linejoin: miter; stroke-miterlimit: 10; is-custom-font: none; font-file-url: none; fill: rgb(21,96,189); fill-rule: nonzero; opacity: 1;" transform=" translate(-174.5364, -320.1754)" d="M 174.47 314.57 c 4.77 -0.02 8.7 3.63 9.04 8.38 c 0.11 1.55 -0.66 2.66 -1.95 2.81 c -1.4 0.17 -2.33 -0.7 -2.53 -2.36 c -0.31 -2.61 -2.05 -4.3 -4.47 -4.32 c -2.45 -0.02 -4.21 1.62 -4.52 4.22 c -0.2 1.69 -1.09 2.57 -2.48 2.47 c -1.38 -0.11 -2.09 -1.12 -2 -2.86 C 165.79 318.31 169.75 314.6 174.47 314.57 z" stroke-linecap="round"/>
</g>
<g transform="matrix(4.2284 0 0 4.2284 420.9633 429.2134)" id="299641">
<path style="stroke: rgb(21,96,189); stroke-width: 1; stroke-dasharray: none; stroke-linecap: butt; stroke-dashoffset: 0; stroke-linejoin: miter; stroke-miterlimit: 10; is-custom-font: none; font-file-url: none; fill: rgb(21,96,189); fill-rule: nonzero; opacity: 1;" transform=" translate(-201.5149, -320.1826)" d="M 201.54 314.58 c 4.87 0.01 8.93 3.94 8.96 8.67 c 0.01 1.51 -0.76 2.46 -2.07 2.53 c -1.31 0.07 -2.23 -0.78 -2.41 -2.25 c -0.35 -2.84 -2.03 -4.48 -4.57 -4.44 c -2.46 0.03 -4.13 1.71 -4.44 4.46 c -0.16 1.47 -1.07 2.31 -2.4 2.23 c -1.29 -0.08 -2.1 -1.07 -2.08 -2.55 C 192.58 318.52 196.7 314.56 201.54 314.58 z" stroke-linecap="round"/>
</g>
<g transform="matrix(4.2284 0 0 4.2284 696.7761 415.0045)" id="377168">
<path style="stroke: rgb(21,96,189); stroke-width: 1; stroke-dasharray: none; stroke-linecap: butt; stroke-dashoffset: 0; stroke-linejoin: miter; stroke-miterlimit: 10; is-custom-font: none; font-file-url: none; fill: rgb(21,96,189); fill-rule: nonzero; opacity: 1;" transform=" translate(-266.7446, -316.8202)" d="M 313.41 330.72 c -1.83 -6.45 -4.74 -13.27 -8.01 -18.7 c -7.54 -12.57 -16.69 -29.34 -16.79 -29.51 c -0.15 -0.28 -0.37 -0.52 -0.63 -0.72 l -13.51 -9.86 c -0.66 -0.48 -1.52 -0.55 -2.25 -0.19 l -11.91 5.94 c -1.02 0.52 -1.48 1.74 -1.02 2.79 l 2.58 6.04 c -1.56 0.74 -2.51 2.29 -2.42 4.08 c 0.1 2.02 1.49 3.64 3.48 4.02 c 1.21 0.24 2.55 0.4 3.84 0.55 c 2.42 0.28 5.17 0.59 6.56 1.45 c 1.53 0.95 3.36 1.36 5.18 1.45 c 3.61 3.47 4.9 9.54 4.4 12.78 c -0.22 1.49 -0.64 3.49 -1.08 5.61 c -0.32 1.59 -0.69 3.31 -1.01 5.07 c -7.09 -4.11 -16.01 -4.09 -23.16 0.3 l -2.31 1.41 c -0.19 -0.12 -0.39 -0.25 -0.59 -0.37 c -2.34 -1.46 -4.83 -2.59 -7.42 -3.36 c -1.56 -0.47 -3.15 -0.82 -4.75 -1.03 c -3.19 -0.43 -6.45 -0.36 -9.69 0.23 c -0.32 0.06 -0.68 0.15 -1.13 0.29 c -7.7 2.41 -13.13 9.49 -13.53 17.62 l -0.17 3.73 c -0.31 6.71 2.88 13.03 8.2 16.79 c 1.1 0.77 2.28 1.43 3.55 1.97 c 0.02 0.01 0.02 0.01 0.04 0.02 c 5.28 2.21 11.04 2.66 16.48 1.4 c 1.32 -0.31 2.62 -0.72 3.88 -1.22 c 1.11 -0.45 2.19 -0.97 3.24 -1.57 c 3.34 1.87 8.76 3.89 16.94 4.32 c 11.14 0.57 24.44 -1.99 39.53 -7.59 c 0.05 -0.03 0.1 -0.06 0.17 -0.08 c 2.22 -1.05 3.78 -2.99 4.62 -5.75 c 0.01 -0.05 0.03 -0.09 0.04 -0.13 c 0.3 -1.01 0.49 -2.1 0.58 -3.23 c 0.07 -0.7 0.1 -1.41 0.1 -2.13 C 315.42 338.9 314.43 334.3 313.41 330.72 z M 310.56 347.37 c -0.14 0.47 -0.32 0.89 -0.52 1.26 c -0.44 0.84 -1.01 1.43 -1.75 1.78 c -28.65 10.64 -44.01 7.54 -50.96 4.41 c 0.54 -0.44 1.11 -0.86 1.67 -1.25 c 0.98 -0.69 1.21 -2.04 0.53 -3.03 c -0.52 -0.74 -1.43 -1.06 -2.27 -0.86 c -0.27 0.06 -0.52 0.16 -0.75 0.33 c -0.98 0.69 -1.95 1.43 -2.86 2.21 c -1.03 0.88 -1.54 1.23 -1.75 1.36 c -6.11 3.76 -13.74 4.31 -20.4 1.5 c -0.96 -0.4 -1.86 -0.91 -2.69 -1.48 c -4.16 -2.91 -6.66 -7.85 -6.41 -13.09 l 0.17 -3.73 c 0.3 -6.32 4.51 -11.82 10.48 -13.68 c 0.38 -0.11 0.56 -0.15 0.62 -0.17 c 3.5 -0.63 7.04 -0.56 10.45 0.18 c 1.45 0.32 2.86 0.75 4.23 1.32 c 1.42 0.56 2.79 1.26 4.09 2.08 c 2.32 1.45 4.51 2.77 6.53 3.91 c 1.04 0.58 2.37 0.21 2.95 -0.83 c 0.19 -0.33 0.29 -0.7 0.29 -1.06 c 0 -0.76 -0.39 -1.49 -1.1 -1.89 c -0.52 -0.29 -1.05 -0.6 -1.59 -0.92 l 0.4 -0.25 c 6.25 -3.84 14.18 -3.53 20.11 0.67 c -0.34 2.45 -0.55 4.84 -0.5 6.97 c 0.02 1.19 1.02 2.14 2.22 2.11 c 1.19 -0.04 2.14 -1.03 2.11 -2.22 c -0.12 -4.49 1.15 -10.7 2.19 -15.69 c 0.48 -2.27 0.89 -4.24 1.13 -5.85 c 0.1 -0.61 0.14 -1.3 0.14 -2.04 c 0 -3.43 -1.03 -8.05 -3.57 -11.82 c 1.61 -0.31 2.81 -0.69 3.12 -0.79 c 0.91 -0.31 1.49 -1.15 1.49 -2.05 c 0 -0.23 -0.05 -0.46 -0.12 -0.69 c -0.36 -1.14 -1.59 -1.75 -2.74 -1.37 c -0.01 0 -1.8 0.59 -4 0.88 c -2.59 0.32 -4.69 0.1 -5.9 -0.66 c -2.2 -1.37 -5.33 -1.74 -8.35 -2.09 c -1.21 -0.14 -2.35 -0.28 -3.38 -0.46 c 5.85 -1.67 13.12 -0.14 13.19 -0.13 c 1.16 0.26 2.32 -0.49 2.57 -1.65 c 0.26 -1.16 -0.49 -2.33 -1.65 -2.58 c -0.11 -0.03 -0.99 -0.21 -2.36 -0.39 l -3.14 -4.11 c -0.73 -0.94 -2.09 -1.14 -3.04 -0.4 c -0.95 0.73 -1.14 2.08 -0.41 3.04 l 0.85 1.12 c -1.19 0.01 -2.46 0.09 -3.73 0.25 l -2.08 -4.86 l 8.9 -4.45 l 12.07 8.8 c 1.48 2.72 9.73 17.73 16.64 29.25 c 5.57 9.28 10.25 23.27 9.29 31.15 C 310.88 346.11 310.75 346.77 310.56 347.37 z" stroke-linecap="round"/>
</g>
</svg>