<?xml version="1.0" encoding="utf-8"?>
<!-- Generator: Adobe Illustrator 24.1.1, SVG Export Plug-In . SVG Version: 6.00 Build 0)  -->
<svg version="1.1" id="Layer_1" xmlns="http://www.w3.org/2000/svg" xmlns:xlink="http://www.w3.org/1999/xlink" x="0px" y="0px"
	 viewBox="0 0 682 459" style="enable-background:new 0 0 682 459;" xml:space="preserve">
<style type="text/css">
	.st0{fill:#1560BD;}
	.st1{fill:#074175;}
	.st2{fill:#1560BD;stroke:#1560BD;stroke-miterlimit:10;}
</style>
<path class="st0" d="M329.93,258.81c-0.06-2.64,0.54-5.58-2.81-7.05c-0.63-0.27-1.01-1.36-1.29-2.15c-0.86-2.46-2.78-3.5-5.07-4.22
	c-1.89-0.57-2.71-0.09-3.16,1.95c-0.57,2.63-1.61,5.15-2.47,7.73c-0.27,0-0.54,0.02-0.81,0.02c-0.93-2.17-2.12-4.07-4.65-2.5
	c-2.75,1.71-5.42,1.74-8.15,0.25c-2.6-1.43-4.88-1-6.64,1.2c-1.79,2.24-3.81,2.46-6.38,1.76c-4.18-1.14-4.18-1.04-5.96,2.76
	c-0.25,0.55-0.74,1.01-1.58,2.14c-2.05-4.12-4.22-7.64-5.58-11.44c-1.98-5.5-1.73-5.64-7.7-6.07c-2.37-0.17-3.31-1.11-2.66-3.49
	c1.33-4.8,0.02-8.66-3.55-12.23c-3.52-3.53-6.62-7.46-5.42-13.18c0.24-1.06-0.76-2.37-1.18-3.58c-1.19,0.48-2.4,0.91-3.54,1.44
	c-0.41,0.19-0.74,0.62-1.01,1.02c-2.25,3.34-5.75,4.51-8.6,5.42c-2.14-1.19-3.73-2.09-5.18-2.92c-0.1-1.84-0.02-3.66-0.31-5.42
	c-0.3-1.83,0.07-2.82,2.05-3.32c0.77-0.21,1.72-1.54,1.79-2.41c0.09-1.46-0.18-3.11-0.78-4.45c-2.45-5.41-2.15-10.44,0.84-15.63
	c1.98-3.43,1.81-7.25,0.22-11.1c-0.66,0.3-1.03,0.4-1.31,0.6c-3.41,2.35-3.82,2.25-6.73-0.65c-1.19-1.2-2.57-2.3-4.04-3.12
	c-1.59-0.89-2.46-1.81-2.4-3.79c0.08-2.71-0.6-5.37-3.58-6.21c-3.2-0.92-4.8-2.75-4.91-6.1c-0.06-2.21-1.08-3.54-3.56-4.05
	c-5.18-1.05-7.31-3.88-6.88-9.08c0.29-3.52-0.63-6.4-2.96-8.95c-1.48-1.63-3.04-3.23-4.25-5.05c-0.85-1.29-1.68-2.95-1.66-4.42
	c0.05-5.85,0.71-11.68,0.63-17.51c-0.08-6.08-0.77-12.15-1.22-18.44h-26.87v3.09c-0.2,17.82-0.31,35.66-0.63,53.5
	c-0.16,9.01-0.27,18.06-1.17,27.01c-0.65,6.31-0.08,12.17,2.29,17.97c0.32,0.76,0.5,1.68,0.45,2.5c-0.4,6.91,1.77,12.4,7.57,16.63
	c4.31,3.14,4.66,6.83,2.27,11.47c-1.1,2.13-1.91,4.41-2.92,6.56c-1.03,2.19-1.95,4.49-3.31,6.47c-1.46,2.1-2.87,3.94-2.14,6.79
	c0.22,0.84-0.62,2.13-1.25,3c-2.55,3.58-5.4,6.97-7.81,10.64c-3.41,5.23-1.79,9.76,3.98,12.08c2.66,1.06,3.26,2.41,2.34,5.19
	c-0.36,1.1-1.22,2.36-0.92,3.24c0.92,2.66-0.2,4.84-0.97,7.2c-0.52,1.62-0.96,3.33-1.02,5.01c-0.08,1.84-0.15,3.68-0.23,5.51
	c1,0.24,2,0.56,2.98,0.97c0.1,0.04,0.2,0.08,0.3,0.11c0.09-2.37,0.18-4.74,0.27-7.1c0.02-0.47-0.05-1.03,0.18-1.41
	c2.56-4.35,1.82-9.42,2.96-14.08c0.87-3.57-0.87-6.24-4.69-7.76c-3.64-1.46-4.55-3.87-2.35-7.12c2.63-3.88,5.69-7.48,8.24-11.4
	c0.92-1.43,0.87-3.49,1.32-5.23c0.25-0.95,0.39-2.05,0.96-2.77c2.14-2.71,4.19-5.33,4.69-9c0.29-2.09,1.45-4.23,2.73-5.98
	c2.71-3.67,2.07-7.24-0.02-10.71c-1.12-1.85-2.52-3.74-4.26-4.95c-4.12-2.9-5.16-6.96-5.67-11.62c-0.44-4.02-1.82-7.94-2.39-11.94
	c-0.43-3-0.38-6.07-0.27-9.1c0.41-11.5,1.12-22.99,1.38-34.49c0.3-14.48,0.25-28.96,0.36-43.44v-3.45h20.71
	c0.25,5.4,0.68,10.6,0.68,15.81c0.01,5.75-0.54,11.5-0.43,17.24c0.03,1.94,1.13,3.97,2.08,5.78c0.69,1.33,1.87,2.42,2.96,3.5
	c2.83,2.77,4.15,5.88,3.67,10.03c-0.68,5.91,2.02,7.44,8.64,10.88c0.9,0.48,1.96,1.57,2.04,2.46c0.35,3.72,2.19,6.1,5.67,7.11
	c2.03,0.6,2.79,1.86,2.67,3.84c-0.21,3.05,1.2,5.05,3.92,6.36c1.1,0.53,2.13,1.3,2.98,2.16c3.69,3.69,3.77,3.77,8.73,3.99
	c-0.33,1.32-0.36,2.74-1,3.8c-3.66,5.99-3.85,12.08-0.96,18.38c0.19,0.43,0.33,0.9,0.44,1.36c0.07,0.27,0,0.56,0,1.08
	c-3.64,1.33-4.62,4.03-3.55,7.75c0.24,0.87,0.11,1.92-0.09,2.83c-0.52,2.37,0.39,3.9,2.49,4.88c0.41,0.19,1.07,0.27,1.23,0.59
	c1.9,3.85,4.74,2.79,7.53,1.44c2.77-1.36,5.45-2.9,8.19-4.35c-0.27,5.32,3.15,9.39,6.78,13.13c2.58,2.64,3.32,5.37,2.61,8.84
	c-1.08,5.2,0.65,7.45,5.91,7.59c2.41,0.06,3.46,0.82,4.36,3.34c1.49,4.17,3.77,8.13,6.1,11.93c1.63,2.68,4.85,2.35,6.6-0.32
	c0.53-0.79,0.91-1.66,1.41-2.59c1,0.2,1.92,0.41,2.84,0.6c3.06,0.6,5.59-0.16,7.81-2.47c0.68-0.7,2.3-1.35,3.03-1.02
	c3.51,1.67,6.95,1.84,10.41,0.26c2.89,3.53,4.97,3.56,7.49-0.12c1.38-2.01,2.26-4.34,3.52-6.82c0.36,0.39,0.9,0.84,1.26,1.39
	c0.46,0.73,0.57,1.81,1.19,2.27c3.47,2.59,2.89,6.33,2.96,9.9c0.59,26.38,1.19,52.74,1.79,79.1c0.02,1.05,0,2.08,0,3.52
	c-2.89,0.1-5.78,0.19-8.67,0.26c-0.1,1.18-0.3,2.32-0.61,3.38c4.21-0.12,8.42-0.26,12.63-0.41c0.05-0.85,0.12-1.33,0.11-1.81
	C331.31,317.49,330.63,288.15,329.93,258.81z"/>
<g>
	<path class="st1" d="M225.2,88.04h13.37c2.32,0,3.73,0.32,4.98,0.88c3.27,1.46,5.39,4.61,5.39,8.49c0,2.68-1.2,5.03-3.25,6.59
		c3.66,1.44,6.12,4.78,6.12,8.91c0,4.2-2.34,7.64-5.88,9.17c-1.32,0.61-2.81,0.95-5.27,0.95H225.2V88.04z M238.16,102.71
		c1.61,0,2.46-0.17,3.25-0.49c1.95-0.81,3.32-2.56,3.32-4.88s-1.37-4.03-3.32-4.86c-0.76-0.34-1.61-0.49-3.27-0.49h-8.56v10.71
		H238.16z M240.04,119.01c1.83,0,2.78-0.2,3.64-0.54c2.24-0.9,3.83-2.95,3.83-5.69c0-2.68-1.59-4.76-3.83-5.69
		c-0.85-0.34-1.81-0.51-3.64-0.51h-10.47v12.42H240.04z"/>
	<path class="st1" d="M257.31,123.03V88.04h15.57c2.44,0,3.95,0.37,5.27,1.02c3.25,1.49,5.37,4.68,5.37,8.64
		c0,2.15-0.63,4.1-1.78,5.69c-1.07,1.49-2.51,2.56-4.2,3.2c-0.66,0.24-1.37,0.44-2.17,0.59l9.76,15.86h-5.08l-9.44-15.69h-8.95
		v15.69H257.31z M272.42,103.32c1.71,0,2.59-0.17,3.39-0.51c1.98-0.83,3.42-2.64,3.42-5.08c0-2.39-1.42-4.22-3.42-5.07
		c-0.81-0.34-1.68-0.51-3.39-0.51h-10.76v11.17H272.42z"/>
	<path class="st1" d="M312.36,115.86h-17.88l-2.88,7.17h-4.61l14.32-34.99h4.27l14.27,34.99h-4.59L312.36,115.86z M296.09,111.81
		h14.66l-7.3-18.37L296.09,111.81z"/>
	<path class="st1" d="M323.83,88.02h4.37v35.01h-4.37V88.02z"/>
	<path class="st1" d="M335.23,123.03V88.02h2.32l23.08,26.74V88.02h4.34v35.01h-2.29L339.6,96.27v26.77H335.23z"/>
	<path class="st1" d="M410.87,95.88c-2.39-2.37-5.66-3.78-9.44-3.78c-7.71,0-13.35,5.78-13.35,13.42c0,7.56,5.59,13.4,13.35,13.4
		c7.3,0,12.91-5.29,13.18-12.96h-13.66v-4.1h17.66c0.27,1.17,0.39,2.42,0.39,3.66c0,9.93-7.59,17.52-17.57,17.52
		c-9.93,0-17.74-7.49-17.74-17.52c0-9.88,7.66-17.49,17.74-17.49c4.78,0,9,1.68,12.13,4.61L410.87,95.88z"/>
	<path class="st1" d="M445.13,115.86h-17.88l-2.88,7.17h-4.61l14.32-34.99h4.27l14.27,34.99h-4.59L445.13,115.86z M428.85,111.81
		h14.66l-7.29-18.37L428.85,111.81z"/>
	<path class="st1" d="M456.6,88.02h4.37v35.01h-4.37V88.02z"/>
	<path class="st1" d="M468,123.03V88.02h2.32l23.08,26.74V88.02h4.34v35.01h-2.29l-23.08-26.77v26.77H468z"/>
	<path class="st1" d="M505.67,113.52c3.15,3.44,7.27,5.39,11.37,5.42c4.98,0,8.22-2.85,8.22-6.42c0-4.39-4.95-5.39-10.2-6.49
		c-5.68-1.17-11.37-2.76-11.37-8.76c0-5.15,4.29-9.22,11.52-9.25c4.22,0,8.76,1.71,12.2,5.05l-2.71,3.03
		c-2.46-2.51-6-4.03-9.56-4.03c-4.37,0-7.17,2.15-7.17,4.98c0,3.25,3.54,4.05,9.13,5.1c5.1,0.98,12.47,2.66,12.47,10.44
		c0,5.88-5.15,10.44-12.49,10.44c-4.78,0-9.96-2.02-14.22-6.47L505.67,113.52z"/>
</g>
<g>
	<path class="st1" d="M280.16,139.56v4.1h-12.22v30.91h-4.37v-30.91h-12.2v-4.1H280.16z"/>
	<path class="st1" d="M289.37,139.56v20.2c0,1.98,0.2,3.17,0.56,4.27c1.24,3.78,4.56,6.44,8.95,6.44c4.46,0,7.78-2.66,9.03-6.44
		c0.37-1.1,0.54-2.29,0.54-4.27v-20.2h4.37v20.2c0,2.54-0.34,4.25-0.93,5.81c-1.85,5.32-6.66,9-12.98,9s-11.13-3.68-13-9
		c-0.56-1.56-0.88-3.27-0.88-5.81v-20.2H289.37z"/>
	<path class="st1" d="M346.46,139.56v4.1h-12.22v30.91h-4.37v-30.91h-12.2v-4.1H346.46z"/>
	<path class="st1" d="M365.84,174.57c-10.13,0-17.74-7.59-17.74-17.52c0-9.88,7.61-17.49,17.74-17.49
		c10.15,0,17.74,7.61,17.74,17.49C383.58,166.98,375.99,174.57,365.84,174.57z M365.84,143.68c-7.76,0-13.32,5.76-13.32,13.37
		c0,7.64,5.56,13.4,13.32,13.4s13.32-5.76,13.32-13.4C379.16,149.44,373.6,143.68,365.84,143.68z"/>
	<path class="st1" d="M388.9,174.57v-34.99h15.57c2.44,0,3.95,0.37,5.27,1.02c3.25,1.49,5.37,4.68,5.37,8.64
		c0,2.15-0.63,4.1-1.78,5.69c-1.07,1.49-2.51,2.56-4.2,3.2c-0.66,0.24-1.37,0.44-2.17,0.59l9.76,15.86h-5.08l-9.44-15.69h-8.95
		v15.69H388.9z M404,154.86c1.71,0,2.59-0.17,3.39-0.51c1.98-0.83,3.42-2.64,3.42-5.08c0-2.39-1.42-4.22-3.42-5.07
		c-0.81-0.34-1.68-0.51-3.39-0.51h-10.76v11.17H404z"/>
	<path class="st1" d="M421.62,139.56h4.37v35.01h-4.37V139.56z"/>
	<path class="st1" d="M433.02,174.57v-35.01h2.32l23.08,26.74v-26.74h4.34v35.01h-2.29l-23.08-26.77v26.77H433.02z"/>
	<path class="st1" d="M495.26,147.41c-2.39-2.37-5.66-3.78-9.44-3.78c-7.71,0-13.35,5.78-13.35,13.42c0,7.56,5.59,13.4,13.35,13.4
		c7.3,0,12.91-5.29,13.18-12.96h-13.66v-4.1H503c0.27,1.17,0.39,2.42,0.39,3.66c0,9.93-7.59,17.52-17.57,17.52
		c-9.93,0-17.74-7.49-17.74-17.52c0-9.88,7.66-17.49,17.74-17.49c4.78,0,9,1.68,12.13,4.61L495.26,147.41z"/>
</g>
<g>
	<path class="st0" d="M319.89,218.08v-31.66h2.4v31.66H319.89z"/>
	<path class="st0" d="M351.19,186.42v31.66h-2.17v-4.93c-0.9,1.66-2.2,2.95-3.89,3.89c-1.69,0.93-3.5,1.4-5.43,1.4
		c-3.23,0-5.89-1.03-8.01-3.08c-2.11-2.05-3.17-4.87-3.17-8.46c0-3.59,1.06-6.41,3.19-8.46c2.13-2.05,4.8-3.08,8.03-3.08
		c2.02,0,3.85,0.44,5.49,1.31c1.64,0.87,2.9,2.19,3.78,3.94v-14.2H351.19z M333.28,199.94c-1.72,1.63-2.58,3.95-2.58,6.97
		c0,2.98,0.87,5.29,2.6,6.92c1.73,1.63,3.91,2.44,6.54,2.44c2.65,0,4.84-0.87,6.56-2.62c1.72-1.75,2.58-4.01,2.58-6.78
		c0-2.74-0.87-4.99-2.6-6.74c-1.73-1.75-3.91-2.62-6.54-2.62C337.19,197.5,335,198.32,333.28,199.94z"/>
	<path class="st0" d="M379.73,195.74v22.34h-2.22v-4.75c-2.11,3.41-5.16,5.11-9.14,5.11c-3.17,0-5.85-1.09-8.05-3.26
		s-3.3-4.93-3.3-8.28c0-3.35,1.09-6.09,3.28-8.23c2.19-2.14,4.88-3.21,8.07-3.21c1.9,0,3.67,0.44,5.31,1.31
		c1.64,0.87,2.92,2.16,3.82,3.84v-4.88H379.73z M361.87,200.19c-1.75,1.73-2.62,3.97-2.62,6.72c0,2.74,0.88,4.99,2.62,6.74
		c1.75,1.75,3.92,2.62,6.51,2.62c1.72,0,3.24-0.35,4.57-1.04c1.33-0.69,2.34-1.58,3.03-2.67s1.21-2.29,1.54-3.62
		c0.33-1.33,0.33-2.66,0-4c-0.33-1.34-0.84-2.56-1.54-3.64s-1.7-1.98-3.03-2.67s-2.85-1.04-4.57-1.04
		C365.79,197.59,363.61,198.46,361.87,200.19z"/>
	<path class="st0" d="M389.19,186.42v13.48c1.66-2.92,4.34-4.42,8.05-4.48c3.04,0,5.37,0.89,6.96,2.67c1.6,1.78,2.4,4.18,2.4,7.19
		v12.8h-2.17v-12.8c0-2.41-0.59-4.3-1.79-5.68c-1.19-1.37-2.99-2.06-5.4-2.06c-2.32,0-4.23,0.79-5.72,2.37s-2.24,3.55-2.24,5.9
		v12.26h-2.22v-31.66H389.19z"/>
	<path class="st0" d="M415.42,215.32c-2.17-2.08-3.26-4.85-3.26-8.32s1.08-6.27,3.26-8.41c2.17-2.14,4.87-3.21,8.09-3.21
		c3.23,0,5.92,1.07,8.1,3.21c2.17,2.14,3.26,4.94,3.26,8.41s-1.09,6.24-3.26,8.32s-4.87,3.12-8.1,3.12
		C420.29,218.44,417.59,217.4,415.42,215.32z M430.07,213.74c1.75-1.69,2.62-3.93,2.62-6.74c0-2.83-0.88-5.13-2.65-6.9
		c-1.76-1.76-3.94-2.65-6.54-2.65c-2.59,0-4.77,0.88-6.54,2.65c-1.76,1.76-2.65,4.06-2.65,6.9c0,2.8,0.87,5.05,2.62,6.74
		s3.93,2.53,6.56,2.53C426.14,216.27,428.32,215.43,430.07,213.74z"/>
</g>
<g>
	<path class="st0" d="M355.32-57.58c0.21-5.1,0.42-9.98,0.61-14.87c0.32-8.47,0.6-16.94,0.96-25.4c0.04-1.06,0.33-2.14,0.66-3.17
		c0.48-1.49,1.19-2.86,0.61-4.55c-0.19-0.54,0.35-1.35,0.58-2.03c0.58-1.76,0.21-2.62-1.48-3.29c-3.65-1.46-4.66-4.32-2.51-7.61
		c1.51-2.32,3.31-4.46,4.93-6.72c0.4-0.56,0.92-1.36,0.79-1.89c-0.46-1.79,0.43-2.96,1.35-4.29c0.86-1.24,1.44-2.69,2.09-4.08
		c0.64-1.37,1.15-2.8,1.84-4.14c1.51-2.93,1.29-5.26-1.43-7.24c-3.66-2.67-5.03-6.14-4.78-10.49c0.03-0.52-0.07-1.1-0.27-1.59
		c-1.51-3.65-1.86-7.35-1.46-11.34c0.57-5.65,0.64-11.36,0.74-17.05c0.2-11.26,0.27-22.52,0.4-33.78c0.01-0.65,0-1.3,0-1.94
		c5.69,0,11.16,0,16.97,0c0.28,3.97,0.71,7.8,0.77,11.63c0.05,3.68-0.37,7.37-0.4,11.05c-0.01,0.94,0.51,1.98,1.05,2.79
		c0.76,1.15,1.75,2.16,2.68,3.19c1.47,1.61,2.05,3.44,1.87,5.65c-0.27,3.28,1.06,5.07,4.34,5.74c1.57,0.32,2.21,1.15,2.25,2.56
		c0.07,2.11,1.07,3.27,3.1,3.85c1.88,0.54,2.31,2.22,2.25,3.92c-0.04,1.25,0.52,1.83,1.51,2.39c0.93,0.52,1.8,1.21,2.56,1.97
		c1.83,1.83,2.09,1.89,4.24,0.42c0.19-0.13,0.42-0.2,0.83-0.39c1,2.43,1.11,4.84-0.14,7.01c-1.89,3.27-2.07,6.46-0.53,9.87
		c0.38,0.85,0.55,1.89,0.49,2.81c-0.04,0.55-0.63,1.39-1.12,1.52c-1.25,0.32-1.48,0.93-1.3,2.1c0.18,1.11,0.13,2.26,0.19,3.42
		c0.92,0.52,1.93,1.08,3.28,1.84c1.8-0.58,4.01-1.32,5.43-3.43c0.17-0.25,0.38-0.52,0.63-0.64c0.73-0.34,1.49-0.61,2.24-0.91
		c0.27,0.76,0.89,1.59,0.75,2.25c-0.77,3.61,1.19,6.1,3.42,8.32c2.24,2.25,3.07,4.69,2.24,7.72c-0.41,1.5,0.18,2.09,1.68,2.19
		c3.77,0.27,3.61,0.36,4.86,3.83c0.86,2.4,2.23,4.63,3.53,7.22c0.53-0.71,0.83-1,1-1.35c1.12-2.4,1.12-2.46,3.76-1.74
		c1.61,0.44,2.9,0.3,4.03-1.11c1.12-1.4,2.56-1.67,4.2-0.77c1.72,0.94,3.41,0.92,5.14-0.15c1.6-0.99,2.35,0.2,2.94,1.58
		c0.17,0,0.34-0.01,0.51-0.01c0.53-1.62,1.2-3.22,1.55-4.88c0.28-1.29,0.8-1.59,1.99-1.23c1.45,0.45,2.66,1.1,3.2,2.65
		c0.18,0.5,0.42,1.19,0.82,1.37c2.11,0.92,1.73,2.77,1.77,4.45c0.44,18.52,0.87,37.04,1.3,55.55c0.01,0.3-0.04,0.6-0.07,1.14
		C425.69-56.38,390.67-56.56,355.32-57.58z M458.62-59.67c0-0.91,0.01-1.56,0-2.22c-0.37-16.64-0.75-33.29-1.13-49.93
		c-0.05-2.25,0.32-4.61-1.87-6.25c-0.39-0.29-0.46-0.97-0.75-1.43c-0.22-0.35-0.56-0.63-0.79-0.89c-0.79,1.57-1.35,3.05-2.22,4.31
		c-1.6,2.32-2.9,2.3-4.74,0.07c-2.18,1.01-4.35,0.89-6.57-0.15c-0.45-0.21-1.48,0.2-1.91,0.64c-1.4,1.46-3,1.94-4.93,1.56
		c-0.58-0.12-1.16-0.25-1.79-0.38c-0.32,0.59-0.57,1.14-0.89,1.64c-1.11,1.69-3.14,1.89-4.17,0.2c-1.47-2.4-2.91-4.9-3.85-7.53
		c-0.57-1.58-1.23-2.07-2.75-2.11c-3.32-0.09-4.41-1.51-3.73-4.79c0.45-2.19-0.02-3.92-1.65-5.59c-2.29-2.36-4.45-4.93-4.29-8.29
		c-1.72,0.92-3.41,1.9-5.17,2.75c-1.76,0.86-3.55,1.52-4.75-0.9c-0.1-0.21-0.52-0.25-0.78-0.38c-1.31-0.62-1.9-1.59-1.57-3.08
		c0.13-0.58,0.21-1.24,0.06-1.79c-0.68-2.35-0.05-4.05,2.25-4.89c0-0.32,0.03-0.51-0.01-0.68c-0.07-0.29-0.16-0.59-0.28-0.86
		c-1.81-3.98-1.7-7.82,0.61-11.6c0.41-0.66,0.42-1.56,0.63-2.4c-3.13-0.14-3.18-0.19-5.51-2.52c-0.54-0.54-1.2-1.03-1.89-1.36
		c-1.71-0.82-2.6-2.09-2.47-4.02c0.08-1.24-0.4-2.04-1.68-2.41c-2.2-0.65-3.36-2.15-3.58-4.49c-0.05-0.56-0.72-1.25-1.28-1.55
		c-4.19-2.18-5.88-3.14-5.46-6.88c0.3-2.61-0.52-4.58-2.32-6.33c-0.69-0.67-1.43-1.37-1.87-2.2c-0.6-1.14-1.29-2.42-1.32-3.65
		c-0.06-3.62,0.29-7.25,0.28-10.88c-0.01-3.29-0.27-6.58-0.43-9.98c-4.57,0-8.71,0-13.08,0c0,0.76,0,1.47,0,2.18
		c-0.07,9.14-0.04,18.28-0.23,27.42c-0.15,7.26-0.61,14.51-0.87,21.77c-0.07,1.91-0.09,3.85,0.17,5.74c0.36,2.54,1.23,5,1.5,7.54
		c0.32,2.94,0.98,5.5,3.59,7.33c1.09,0.77,1.98,1.96,2.68,3.13c1.32,2.19,1.73,4.44,0.01,6.77c-0.81,1.1-1.54,2.45-1.72,3.76
		c-0.32,2.33-1.61,3.97-2.96,5.68c-0.36,0.46-0.45,1.15-0.61,1.75c-0.29,1.11-0.25,2.4-0.84,3.31c-1.61,2.48-3.54,4.75-5.2,7.2
		c-1.39,2.05-0.82,3.57,1.48,4.49c2.4,0.96,3.51,2.65,2.96,4.9c-0.72,2.94-0.25,6.14-1.87,8.89c-0.14,0.24-0.11,0.59-0.12,0.89
		c-0.47,12.1-0.93,24.19-1.39,36.29c-0.03,0.7,0,1.41,0,2.26C391.32-58.71,424.85-58.55,458.62-59.67z"/>
	<g>
		<g>
			<path class="st0" d="M423.21-84.3c-0.09,0.4-0.17,0.81-0.28,1.21c-0.59,2.1-1.82,3.74-3.69,4.87c-0.34,0.2-0.46,0.35-0.35,0.78
				c0.83,3.44-0.56,6.89-3.69,9.16c-2.46,1.78-5.24,2.53-8.26,2.44c-0.32-0.01-0.64-0.04-1.01-0.06c-0.01,0.19-0.04,0.36-0.04,0.53
				c0,1.16,0,2.31,0,3.47c-0.01,1.41-0.79,2.56-2.03,3.02c-1.24,0.46-2.59,0.11-3.52-0.94c-1.85-2.11-3.7-4.22-5.53-6.35
				c-0.39-0.46-0.83-0.65-1.44-0.69c-1.99-0.15-3.43-1.16-4.32-2.94c-0.09-0.17-0.16-0.36-0.26-0.58c-2.85,1.64-5.82,2.01-8.9,0.84
				c-3.07-1.17-5.12-3.35-6.19-6.48c-1.61,0.06-3.16-0.19-4.6-0.88c-3.68-1.77-5.71-4.7-6.04-8.79c-0.03-0.4-0.13-0.83-0.3-1.19
				c-1.47-3.19-0.71-7.05,1.91-9.41c0.31-0.28,0.44-0.56,0.47-0.97c0.26-3.63,3.43-6.89,7.06-7.22c0.76-0.07,1.26-0.31,1.73-0.95
				c2.23-2.98,6.12-4,9.57-2.56c0.38,0.16,0.64,0.11,0.97-0.11c3.24-2.04,6.55-2.11,9.87-0.2c0.34,0.19,0.61,0.25,0.99,0.14
				c4.11-1.1,7.83-0.32,11.18,2.31c0.24,0.18,0.55,0.33,0.84,0.37c6.23,0.82,10.73,5.93,10.73,12.2c0,0.36,0.07,0.56,0.43,0.73
				c2.56,1.24,4.08,3.28,4.59,6.08c0.02,0.09,0.07,0.18,0.11,0.27C423.21-85.57,423.21-84.93,423.21-84.3z M409.08-103.01
				c0.31,0.6,0.58,1.06,0.79,1.55c0.21,0.5-0.01,1.02-0.48,1.27c-0.45,0.23-0.96,0.12-1.27-0.31c-0.13-0.18-0.22-0.38-0.32-0.57
				c-2.27-4.36-7.23-6.49-11.95-5.1c-0.85,0.25-1.65,0.67-2.45,1.07c-0.73,0.38-1.29,0.36-1.64-0.16c-0.35-0.52-0.17-1.09,0.5-1.55
				c0.06-0.04,0.11-0.1,0.16-0.15c-1.92-1.04-5.07-0.83-6.52,0.42c0.38,0.46,0.79,0.89,1.13,1.37c0.34,0.47,0.24,1.05-0.19,1.39
				c-0.44,0.35-0.98,0.3-1.39-0.14c-0.14-0.14-0.25-0.31-0.38-0.46c-2.27-2.79-6.53-2.98-9.04-0.4c-0.16,0.16-0.29,0.34-0.46,0.55
				c0.28,0.1,0.46,0.16,0.65,0.24c0.18,0.07,0.37,0.14,0.54,0.24c0.48,0.28,0.65,0.8,0.44,1.28c-0.21,0.49-0.71,0.72-1.23,0.57
				c-0.15-0.04-0.29-0.12-0.44-0.18c-2.5-1-5.31-0.29-7.03,1.79c-0.55,0.66-0.95,1.39-1.16,2.29c0.59-0.13,1.11-0.27,1.63-0.36
				c0.55-0.09,1.06,0.29,1.15,0.8c0.1,0.55-0.2,1.03-0.75,1.18c-0.21,0.06-0.43,0.08-0.64,0.13c-3.06,0.71-5.11,3.75-4.61,6.85
				c0.34,2.09,1.48,3.61,3.34,4.6c0.63,0.33,0.83,0.9,0.55,1.43c-0.28,0.53-0.87,0.68-1.5,0.36c-0.29-0.15-0.58-0.31-0.89-0.49
				c0.57,2.88,4.74,5.8,7.61,5.34c0-0.53-0.02-1.06,0.01-1.59c0.03-0.57,0.48-0.97,1.02-0.97c0.54,0,0.96,0.42,1,0.98
				c0.01,0.14,0,0.28,0,0.42c-0.04,5.19,4.32,9.03,9.44,8.27c2.16-0.32,3.89-1.42,5.23-3.16c-0.46-0.35-0.91-0.65-1.32-1
				c-0.49-0.41-0.56-0.97-0.21-1.43c0.35-0.45,0.92-0.53,1.44-0.18c0.16,0.11,0.32,0.24,0.48,0.36c5.76,4.34,14.07,2.74,17.81-3.42
				c0.22-0.36,0.25-0.62,0.01-1.01c-0.37-0.61-0.65-1.27-0.91-1.94c-0.22-0.57,0.08-1.1,0.62-1.3c0.51-0.18,1.01,0.05,1.27,0.6
				c0.07,0.16,0.13,0.33,0.19,0.5c0.94,2.42,3.42,4.07,5.93,3.93c2.74-0.15,4.97-1.93,5.67-4.51c0.69-2.55-0.33-5.24-2.53-6.69
				c-0.19-0.12-0.39-0.22-0.6-0.34c-0.2,0.61-0.34,1.15-0.54,1.67c-0.22,0.58-0.77,0.83-1.3,0.63c-0.54-0.2-0.78-0.71-0.61-1.31
				c0.03-0.11,0.08-0.23,0.11-0.34c1.07-3.28,0.67-6.37-1.28-9.22C412.98-101,411.28-102.24,409.08-103.01z M398.84-71.97
				c0.28,0.34,0.49,0.63,0.73,0.88c3.85,4.18,11.46,4.31,15.46,0.27c0.83-0.83,1.45-1.79,1.79-2.92c0.35-1.16,0.4-2.33-0.02-3.5
				c-2.55,0.5-4.81-0.05-6.87-1.6C407.33-74.8,403.65-72.53,398.84-71.97z M403.84-63.86c0-0.64-0.03-1.28,0.01-1.91
				c0.03-0.43-0.14-0.57-0.53-0.68c-2.89-0.83-5.07-2.56-6.62-5.14c-0.13-0.21-0.42-0.39-0.67-0.45c-0.94-0.25-1.96-0.3-2.82-0.69
				c-1.06-0.48-1.8-0.41-2.36,0.64c-0.12,0.22-0.24,0.51-0.19,0.73c0.26,1.42,1.44,2.44,2.89,2.47c1.11,0.02,1.98,0.46,2.7,1.29
				c1.83,2.12,3.69,4.23,5.53,6.35c0.38,0.43,0.82,0.65,1.37,0.45c0.53-0.2,0.71-0.65,0.7-1.2
				C403.84-62.62,403.84-63.24,403.84-63.86z"/>
			<path class="st0" d="M390.57-82.12c-3.59-0.17-6.55-1.57-8.84-4.34c-0.48-0.58-0.44-1.18,0.07-1.57
				c0.48-0.37,1.05-0.27,1.51,0.28c1.64,1.97,3.7,3.19,6.25,3.48c3.25,0.37,5.9-0.87,8.08-3.24c0.09-0.1,0.17-0.22,0.27-0.32
				c0.45-0.49,1.03-0.55,1.48-0.17c0.45,0.39,0.5,0.96,0.07,1.49C397.16-83.7,394.17-82.28,390.57-82.12z"/>
			<path class="st0" d="M384.44-98.45c2.16-0.01,3.94,1.64,4.09,3.8c0.05,0.7-0.3,1.2-0.88,1.27c-0.64,0.08-1.06-0.32-1.15-1.07
				c-0.14-1.18-0.93-1.95-2.02-1.95c-1.11-0.01-1.9,0.73-2.05,1.91c-0.09,0.77-0.5,1.17-1.12,1.12c-0.62-0.05-0.95-0.51-0.91-1.3
				C380.5-96.75,382.3-98.44,384.44-98.45z"/>
			<path class="st0" d="M396.7-98.44c2.21,0.01,4.04,1.78,4.06,3.93c0,0.69-0.35,1.11-0.94,1.15c-0.59,0.03-1.01-0.35-1.09-1.02
				c-0.16-1.29-0.92-2.03-2.07-2.01c-1.11,0.02-1.87,0.78-2.01,2.02c-0.07,0.67-0.49,1.05-1.09,1.01c-0.58-0.04-0.95-0.49-0.94-1.15
				C392.64-96.66,394.51-98.45,396.7-98.44z"/>
		</g>
		<path class="st0" d="M434.12-105.96c0.03-0.16,0.03-0.22,0.04-0.28c0.04-0.23,0.06-0.46-0.16-0.6c-0.22-0.14-0.43-0.03-0.62,0.1
			c-0.17,0.12-0.34,0.25-0.59,0.44c0.09-0.31,0.16-0.54,0.23-0.77c-0.02-0.03-0.04-0.05-0.06-0.07c-0.15,0.09-0.33,0.16-0.46,0.28
			c-0.92,0.92-1.84,1.83-2.72,2.78c-0.39,0.43-0.29,1,0.2,1.43c0.07-1.55,1.25-2.38,2.02-3.47c0.04,0.02,0.08,0.05,0.13,0.07
			c-0.06,0.13-0.11,0.27-0.19,0.38c-0.21,0.3-0.43,0.59-0.65,0.88c-0.46,0.61-0.78,1.28-0.91,2.04c-0.06,0.38,0.04,0.71,0.34,0.95
			c0.36,0.3,0.73,0.58,1.1,0.86c0.31,0.23,0.67,0.24,1.12,0.16c-0.32-0.22-0.58-0.39-0.84-0.58c-1.03-0.72-0.95-0.73-0.65-1.74
			c0.22-0.72,0.55-1.41,0.84-2.11c0.03-0.07,0.08-0.14,0.13-0.2c0.02-0.02,0.05-0.03,0.15-0.08c-0.12,0.38-0.23,0.69-0.33,1.01
			c-0.19,0.57-0.38,1.13-0.57,1.7c-0.14,0.43-0.04,0.77,0.32,1.05c0.36,0.28,0.69,0.61,1.08,0.84c0.28,0.17,0.63,0.21,0.94,0.3
			c0.01-0.03,0.03-0.06,0.04-0.1c-0.24-0.18-0.47-0.37-0.73-0.52c-0.26-0.16-0.39-0.38-0.41-0.67c-0.09-1.22,0.33-2.3,0.92-3.33
			c0.04,0.01,0.09,0.02,0.13,0.03c-0.05,0.23-0.06,0.47-0.15,0.69c-0.19,0.49-0.42,0.97-0.6,1.46c-0.29,0.77-0.13,1.29,0.51,1.8
			c0.24,0.19,0.49,0.36,0.74,0.54c0.39,0.27,0.77,0.26,1.14-0.05c0.19-0.16,0.37-0.35,0.55-0.52c0.21-0.2,0.16-0.4,0-0.59
			c-0.15-0.18-0.52-0.28-0.66-0.15c-0.05,0.05-0.06,0.18-0.05,0.27c0.02,0.23,0.05,0.46,0.08,0.69c-0.04,0-0.08,0.01-0.12,0.01
			c-0.01-0.09-0.03-0.19-0.04-0.28c-0.03-0.37-0.07-0.39-0.4-0.26c-0.09,0.03-0.18,0.05-0.27,0.08c-0.01-0.02-0.02-0.04-0.04-0.07
			c0.08-0.07,0.14-0.15,0.23-0.21c0.24-0.17,0.28-0.37,0.19-0.64c-0.11-0.33-0.21-0.66-0.3-0.99c-0.03-0.11-0.02-0.23-0.02-0.35
			c0.03-0.01,0.06-0.02,0.1-0.03c0.17,0.41,0.35,0.83,0.56,1.33c0.29-0.48,0.54-0.88,0.79-1.29c0.03,0.01,0.05,0.02,0.08,0.04
			c-0.11,0.3-0.21,0.61-0.35,0.9c-0.1,0.23-0.09,0.38,0.12,0.55c0.3,0.23,0.48,0.55,0.65,0.9c0.35,0.74,0.89,1.32,1.65,1.67
			c0.4,0.18,0.76,0.16,1.11-0.11c0.16-0.12,0.33-0.24,0.52-0.38c0.04,0.11,0.08,0.18,0.1,0.26c0.41,1.73,0.88,3.43,1.54,5.09
			c0.38,0.96,0.39,1.96,0.14,2.96c-0.4,1.63-0.43,3.27-0.07,4.91c0.18,0.84,0.57,1.6,1.14,2.26c0.73,0.84,1.44,1.71,2.15,2.56
			c0.04,0.05,0.07,0.1,0.11,0.15c-0.03,0.02-0.05,0.06-0.07,0.06c-1.15-0.02-2.29-0.09-3.37-0.55c-0.21-0.09-0.43-0.2-0.6-0.35
			c-0.67-0.59-1.45-0.83-2.33-0.75c-0.06,0.01-0.12,0-0.22,0c0.04-0.08,0.07-0.14,0.1-0.19c0.19-0.26,0.4-0.51,0.57-0.79
			c0.41-0.64,0.33-1.32-0.23-1.84c-0.84-0.79-1.84-1.29-2.92-1.64c-0.66-0.21-1.32-0.41-2.02-0.35c-0.49,0.05-0.99,0.11-1.45,0.29
			c-1.79,0.7-3.48,1.59-5.14,2.56c-0.25,0.14-0.52,0.24-0.79,0.36c-0.03-0.03-0.06-0.06-0.09-0.09c0.09-0.16,0.16-0.36,0.28-0.49
			c0.51-0.53,1.04-1.05,1.58-1.56c0.39-0.36,0.66-0.77,0.55-1.31c-0.29-1.41-0.86-2.68-2.01-3.62c-1.03-0.84-2.21-1.14-3.52-0.91
			c-0.06,0.01-0.12,0.01-0.25,0.01c0.12-0.14,0.19-0.25,0.28-0.33c0.67-0.61,1.46-0.73,2.33-0.54c1.24,0.27,2.2,0.96,2.96,1.94
			c0.61,0.8,1.17,1.63,1.79,2.42c0.47,0.61,1.01,0.77,1.67,0.39c1.81-1.05,4.92-0.36,6.44,1.28c0.32,0.34,0.63,0.67,1,0.99
			c-0.05-0.26-0.1-0.52-0.16-0.79c-0.29-1.4-0.17-2.74,0.48-4.05c0.4-0.8,0.41-1.71,0.35-2.6c-0.09-1.5-0.68-2.83-1.4-4.11
			c-0.25-0.45-1.08-0.73-1.56-0.61c-0.85,0.2-1.72,0.2-2.55-0.07c-0.7-0.22-1.37-0.35-2.11-0.18c-0.9,0.2-1.77-0.09-2.61-0.42
			c-0.25-0.1-0.51-0.2-0.76-0.31c-0.52-0.22-0.62-0.73-0.21-1.11c0.21-0.2,0.48-0.34,0.72-0.51c0.09-0.06,0.18-0.12,0.29-0.19
			c-0.27-0.3-0.52-0.57-0.76-0.86c-0.48-0.58-0.49-0.82,0.01-1.37c0.89-0.98,1.8-1.95,2.71-2.92c0.16-0.17,0.34-0.32,0.53-0.46
			c0.38-0.28,0.69-0.24,0.98,0.12c0.11,0.15,0.2,0.21,0.4,0.15c0.22-0.07,0.4,0.04,0.56,0.21c0.07,0.07,0.19,0.1,0.3,0.14
			c0.15,0.05,0.31,0.08,0.45,0.15c0.26,0.12,0.52,0.27,0.78,0.41c1.73,0.94,3.46,1.87,5.18,2.82c0.24,0.14,0.46,0.38,0.61,0.62
			c1.88,3.09,3.79,6.17,5.59,9.3c1.04,1.81,1.87,3.75,2.33,5.79c0.29,1.27,0.42,2.58,0.58,3.87c0.17,1.27,0.29,2.54,0.44,3.81
			c0.04,0.37-0.05,0.7-0.3,0.99c-0.19,0.22-0.4,0.43-0.58,0.67c-0.76,0.98-1.79,1.49-3,1.69c-2.12,0.36-4.23,0.75-6.35,1.1
			c-1.35,0.22-2.7,0.4-4.06,0.57c-1.46,0.18-2.9,0.05-4.31-0.35c-1.08-0.3-2.13-0.72-3.19-1.09c-0.13-0.05-0.26-0.11-0.41-0.17
			c-0.34,0.61-0.68,1.21-1.02,1.81c-0.2,0.34-0.39,0.69-0.6,1.02c-0.19,0.3-0.42,0.29-0.61,0c-0.01-0.01-0.01-0.02-0.02-0.03
			c-0.6-0.97-0.6-0.97-0.05-1.98c0.28-0.51,0.54-1.02,0.83-1.52c0.12-0.21,0.07-0.36-0.06-0.55c-0.46-0.66-0.89-1.32-1.34-1.99
			c-0.03-0.05-0.04-0.1-0.02-0.21c0.08,0.06,0.16,0.12,0.24,0.19c2.29,2.14,5.04,3.24,8.14,3.5c0.51,0.04,1.04-0.01,1.53-0.13
			c1.6-0.41,3.18-0.89,4.78-1.31c1.84-0.49,3.73-0.51,5.62-0.4c0.6,0.04,1.22,0.03,1.82-0.03c0.59-0.07,1.04-0.43,1.36-0.93
			c0.2-0.32,0.39-0.64,0.6-0.95c0.17-0.26,0.19-0.51,0.08-0.81c-0.38-1.02-0.75-2.03-1.1-3.06c-0.42-1.24-0.51-2.54-0.65-3.83
			c-0.24-2.24-0.85-4.34-2.01-6.29c-0.94-1.59-1.73-3.28-2.64-4.9c-0.67-1.19-1.42-2.34-2.15-3.5c-0.13-0.2-0.3-0.39-0.5-0.52
			c-1.18-0.76-2.36-1.54-3.58-2.23c-0.63-0.35-1.34-0.55-2.03-0.8C434.88-106.33,434.51-106.25,434.12-105.96z M431.84-100.12
			c-0.16-0.24-0.28-0.51-0.48-0.68c-0.23-0.21-0.52-0.35-0.8-0.49c-0.36-0.19-0.81-0.01-0.97,0.35c-0.18,0.4-0.08,0.7,0.37,0.87
			c0.92,0.33,1.87,0.58,2.85,0.38c0.73-0.15,1.42-0.1,2.13,0.11c0.64,0.19,1.29,0.23,1.94,0.01c0.24-0.08,0.3-0.21,0.18-0.44
			c-0.11-0.19-0.2-0.4-0.31-0.59c-0.22-0.4-0.4-0.44-0.73-0.12c-0.26,0.25-0.55,0.43-0.91,0.44c-0.41,0.01-0.83,0.02-1.24-0.01
			c-0.37-0.02-0.74-0.09-1.11-0.14c-0.28-0.04-0.55-0.08-0.85-0.13C431.89-100.41,431.87-100.26,431.84-100.12z"/>
		<path class="st0" d="M426.98-82.15c3.5,2.07,7.02,1.79,10.63,0.15c-0.07,0.11-0.1,0.18-0.14,0.23c-1.82,2.02-4.44,3.05-7.24,1.87
			c-1.2-0.5-2.24-1.25-3.18-2.15C427.02-82.08,427-82.12,426.98-82.15z"/>
		<path class="st0" d="M446.98-86.46c-0.28-2.35-0.86-4.63-1.6-6.9C446.59-92.6,447.28-89.61,446.98-86.46z"/>
	</g>
	<text transform="matrix(1 0 0 1 416.6501 -174.1579)"><tspan x="0" y="0" class="st1" style="font-family:'NEXTART'; font-size:36.3316px;">BRAIN GAINS</tspan><tspan x="0" y="43.6" class="st1" style="font-family:'NEXTART'; font-size:36.3316px;"> TUTORING</tspan></text>
	<text transform="matrix(1 0 0 1 466.3787 -91.1335)" class="st0" style="font-family:'Nexa-Light'; font-size:32.8828px;">Idaho</text>
</g>
<g>
	<g>
		<path class="st2" d="M250.69,361.74c-1.4,0.57-2.83,1.02-4.3,1.36c0.39,2.02,0.19,4.03-0.41,6.04c-0.74,2.5-2.12,4.62-3.93,6.46
			c-8.86,8.91-25.64,8.61-34.15-0.61c-0.52-0.57-0.99-1.2-1.61-1.96c9.06-1.06,16.31-4.87,21.82-11.49
			c-0.02-0.01-0.03-0.01-0.05-0.02c-1.41-0.6-2.73-1.34-3.94-2.19c-9.11,10.42-25.13,12.44-36.58,3.81
			c-0.35-0.26-0.69-0.55-1.05-0.8c-1.13-0.75-2.41-0.59-3.17,0.41c-0.77,1-0.63,2.25,0.46,3.15c0.9,0.75,1.88,1.43,2.91,2.2
			c-2.98,3.86-6.8,6.28-11.56,6.99c-11.32,1.68-20.94-6.78-20.86-18.26c0-0.31,0.02-0.61,0-0.92c-0.1-1.26-1.03-2.16-2.21-2.17
			c-1.18-0.01-2.18,0.88-2.24,2.14c-0.08,1.17-0.02,2.35-0.02,3.51c-6.36,1.01-15.57-5.44-16.82-11.8c0.71,0.38,1.33,0.75,1.99,1.08
			c1.37,0.69,2.68,0.36,3.3-0.8c0.61-1.17,0.16-2.42-1.22-3.16c-4.11-2.2-6.63-5.55-7.39-10.17c-1.11-6.84,3.43-13.55,10.19-15.12
			c0.47-0.1,0.95-0.17,1.41-0.3c1.22-0.34,1.89-1.39,1.66-2.62c-0.21-1.15-1.31-1.98-2.53-1.78c-1.16,0.18-2.3,0.51-3.62,0.79
			c0.46-1.98,1.36-3.6,2.56-5.06c3.81-4.59,9.99-6.15,15.52-3.94c0.32,0.12,0.64,0.31,0.97,0.41c1.15,0.32,2.25-0.2,2.73-1.27
			c0.46-1.07,0.08-2.21-0.98-2.83c-0.37-0.22-0.79-0.37-1.2-0.54c-0.4-0.16-0.81-0.3-1.43-0.52c0.38-0.47,0.68-0.87,1.02-1.22
			c3.6-3.69,8.82-4.81,13.42-3.45c1.09,0.32,2.14,0.77,3.12,1.36c1.27,0.77,2.43,1.77,3.43,2.98c0.28,0.34,0.52,0.71,0.83,1.03
			c0.91,0.95,2.11,1.06,3.07,0.3c0.94-0.73,1.16-2.01,0.41-3.06c-0.76-1.06-1.66-2.02-2.5-3.03c3.21-2.75,10.18-3.21,14.4-0.92
			c-0.12,0.11-0.23,0.24-0.36,0.32c-1.47,1.02-1.88,2.26-1.11,3.42c0.77,1.15,1.99,1.19,3.61,0.36c1.76-0.9,3.54-1.82,5.4-2.37
			c10.41-3.09,21.37,1.63,26.38,11.24c0.23,0.42,0.41,0.88,0.71,1.26c0.68,0.94,1.81,1.19,2.81,0.7c1.03-0.54,1.52-1.7,1.04-2.81
			c-0.46-1.08-1.06-2.1-1.74-3.42c4.87,1.71,8.61,4.43,11.34,8.43c0.78,1.15,1.45,2.3,2,3.47c1.78,0.24,3.55,0.62,5.28,1.15
			c-3.1-9.8-11.57-17.1-22.4-18.53c-0.66-0.09-1.35-0.4-1.87-0.81c-7.39-5.79-15.62-7.53-24.68-5.1c-0.86,0.24-1.46,0.12-2.2-0.31
			c-7.34-4.21-14.63-4.07-21.8,0.44c-0.66,0.42-1.17,0.55-1.86,0.33c-0.1-0.03-0.19-0.07-0.29-0.11c-0.94-0.39-1.89-0.7-2.84-0.93
			c-6.83-1.61-13.96,0.82-18.28,6.6c-1.06,1.41-2.15,1.95-3.84,2.1c-8.03,0.74-15.01,7.91-15.6,15.95c-0.07,0.9-0.34,1.52-1.02,2.13
			c-5.77,5.2-7.46,13.75-4.22,20.78c0.37,0.81,0.58,1.73,0.66,2.62c0.73,9.04,5.21,15.49,13.33,19.4c3.18,1.54,6.61,2.07,10.16,1.95
			c2.37,6.9,6.87,11.74,13.65,14.31c6.81,2.59,13.35,1.76,19.65-1.85c0.22,0.49,0.38,0.9,0.58,1.28c1.97,3.93,5.14,6.18,9.54,6.5
			c1.34,0.11,2.3,0.52,3.16,1.53c4.05,4.71,8.12,9.37,12.22,14.02c2.05,2.34,5.04,3.11,7.78,2.09c2.74-1.02,4.46-3.56,4.49-6.68
			c0.02-2.54,0-5.1,0.01-7.65c0-0.37,0.05-0.74,0.08-1.16c0.83,0.06,1.54,0.1,2.23,0.12c6.66,0.2,12.8-1.44,18.23-5.38
			C249.05,376.35,252.15,369.09,250.69,361.74z M217.36,386.74c-0.1,1.4-0.03,2.81-0.03,4.22c0,1.36-0.02,2.72,0.01,4.09
			c0.02,1.2-0.38,2.2-1.57,2.64c-1.22,0.46-2.18-0.02-3.02-0.98c-4.07-4.69-8.17-9.34-12.21-14.01c-1.59-1.85-3.5-2.8-5.96-2.85
			c-3.21-0.07-5.79-2.31-6.38-5.45c-0.1-0.51,0.17-1.14,0.43-1.62c1.22-2.3,2.86-2.45,5.2-1.4c1.92,0.86,4.16,0.98,6.24,1.52
			c0.54,0.15,1.19,0.53,1.48,1.01c3.4,5.68,8.24,9.51,14.6,11.35C217.03,385.48,217.41,385.77,217.36,386.74z"/>
		<path class="st2" d="M188.02,350.61c-7.94-0.37-14.47-3.47-19.51-9.59c-1.06-1.29-0.98-2.6,0.14-3.47
			c1.05-0.82,2.31-0.6,3.33,0.63c3.61,4.34,8.18,7.04,13.8,7.68c7.18,0.81,13.04-1.91,17.84-7.15c0.21-0.23,0.38-0.48,0.59-0.71
			c0.99-1.07,2.28-1.22,3.27-0.37c1,0.85,1.1,2.12,0.16,3.28C202.57,347.14,195.96,350.27,188.02,350.61z"/>
		<path class="st2" d="M174.47,314.57c4.77-0.02,8.7,3.63,9.04,8.38c0.11,1.55-0.66,2.66-1.95,2.81c-1.4,0.17-2.33-0.7-2.53-2.36
			c-0.31-2.61-2.05-4.3-4.47-4.32c-2.45-0.02-4.21,1.62-4.52,4.22c-0.2,1.69-1.09,2.57-2.48,2.47c-1.38-0.11-2.09-1.12-2-2.86
			C165.79,318.31,169.75,314.6,174.47,314.57z"/>
		<path class="st2" d="M201.54,314.58c4.87,0.01,8.93,3.94,8.96,8.67c0.01,1.51-0.76,2.46-2.07,2.53c-1.31,0.07-2.23-0.78-2.41-2.25
			c-0.35-2.84-2.03-4.48-4.57-4.44c-2.46,0.03-4.13,1.71-4.44,4.46c-0.16,1.47-1.07,2.31-2.4,2.23c-1.29-0.08-2.1-1.07-2.08-2.55
			C192.58,318.52,196.7,314.56,201.54,314.58z"/>
	</g>
	<path class="st2" d="M313.41,330.72c-1.83-6.45-4.74-13.27-8.01-18.7c-7.54-12.57-16.69-29.34-16.79-29.51
		c-0.15-0.28-0.37-0.52-0.63-0.72l-13.51-9.86c-0.66-0.48-1.52-0.55-2.25-0.19l-11.91,5.94c-1.02,0.52-1.48,1.74-1.02,2.79
		l2.58,6.04c-1.56,0.74-2.51,2.29-2.42,4.08c0.1,2.02,1.49,3.64,3.48,4.02c1.21,0.24,2.55,0.4,3.84,0.55
		c2.42,0.28,5.17,0.59,6.56,1.45c1.53,0.95,3.36,1.36,5.18,1.45c3.61,3.47,4.9,9.54,4.4,12.78c-0.22,1.49-0.64,3.49-1.08,5.61
		c-0.32,1.59-0.69,3.31-1.01,5.07c-7.09-4.11-16.01-4.09-23.16,0.3l-2.31,1.41c-0.19-0.12-0.39-0.25-0.59-0.37
		c-2.34-1.46-4.83-2.59-7.42-3.36c-1.56-0.47-3.15-0.82-4.75-1.03c-3.19-0.43-6.45-0.36-9.69,0.23c-0.32,0.06-0.68,0.15-1.13,0.29
		c-7.7,2.41-13.13,9.49-13.53,17.62l-0.17,3.73c-0.31,6.71,2.88,13.03,8.2,16.79c1.1,0.77,2.28,1.43,3.55,1.97
		c0.02,0.01,0.02,0.01,0.04,0.02c5.28,2.21,11.04,2.66,16.48,1.4c1.32-0.31,2.62-0.72,3.88-1.22c1.11-0.45,2.19-0.97,3.24-1.57
		c3.34,1.87,8.76,3.89,16.94,4.32c11.14,0.57,24.44-1.99,39.53-7.59c0.05-0.03,0.1-0.06,0.17-0.08c2.22-1.05,3.78-2.99,4.62-5.75
		c0.01-0.05,0.03-0.09,0.04-0.13c0.3-1.01,0.49-2.1,0.58-3.23c0.07-0.7,0.1-1.41,0.1-2.13C315.42,338.9,314.43,334.3,313.41,330.72z
		 M310.56,347.37c-0.14,0.47-0.32,0.89-0.52,1.26c-0.44,0.84-1.01,1.43-1.75,1.78c-28.65,10.64-44.01,7.54-50.96,4.41
		c0.54-0.44,1.11-0.86,1.67-1.25c0.98-0.69,1.21-2.04,0.53-3.03c-0.52-0.74-1.43-1.06-2.27-0.86c-0.27,0.06-0.52,0.16-0.75,0.33
		c-0.98,0.69-1.95,1.43-2.86,2.21c-1.03,0.88-1.54,1.23-1.75,1.36c-6.11,3.76-13.74,4.31-20.4,1.5c-0.96-0.4-1.86-0.91-2.69-1.48
		c-4.16-2.91-6.66-7.85-6.41-13.09l0.17-3.73c0.3-6.32,4.51-11.82,10.48-13.68c0.38-0.11,0.56-0.15,0.62-0.17
		c3.5-0.63,7.04-0.56,10.45,0.18c1.45,0.32,2.86,0.75,4.23,1.32c1.42,0.56,2.79,1.26,4.09,2.08c2.32,1.45,4.51,2.77,6.53,3.91
		c1.04,0.58,2.37,0.21,2.95-0.83c0.19-0.33,0.29-0.7,0.29-1.06c0-0.76-0.39-1.49-1.1-1.89c-0.52-0.29-1.05-0.6-1.59-0.92l0.4-0.25
		c6.25-3.84,14.18-3.53,20.11,0.67c-0.34,2.45-0.55,4.84-0.5,6.97c0.02,1.19,1.02,2.14,2.22,2.11c1.19-0.04,2.14-1.03,2.11-2.22
		c-0.12-4.49,1.15-10.7,2.19-15.69c0.48-2.27,0.89-4.24,1.13-5.85c0.1-0.61,0.14-1.3,0.14-2.04c0-3.43-1.03-8.05-3.57-11.82
		c1.61-0.31,2.81-0.69,3.12-0.79c0.91-0.31,1.49-1.15,1.49-2.05c0-0.23-0.05-0.46-0.12-0.69c-0.36-1.14-1.59-1.75-2.74-1.37
		c-0.01,0-1.8,0.59-4,0.88c-2.59,0.32-4.69,0.1-5.9-0.66c-2.2-1.37-5.33-1.74-8.35-2.09c-1.21-0.14-2.35-0.28-3.38-0.46
		c5.85-1.67,13.12-0.14,13.19-0.13c1.16,0.26,2.32-0.49,2.57-1.65c0.26-1.16-0.49-2.33-1.65-2.58c-0.11-0.03-0.99-0.21-2.36-0.39
		l-3.14-4.11c-0.73-0.94-2.09-1.14-3.04-0.4c-0.95,0.73-1.14,2.08-0.41,3.04l0.85,1.12c-1.19,0.01-2.46,0.09-3.73,0.25l-2.08-4.86
		l8.9-4.45l12.07,8.8c1.48,2.72,9.73,17.73,16.64,29.25c5.57,9.28,10.25,23.27,9.29,31.15
		C310.88,346.11,310.75,346.77,310.56,347.37z"/>
</g>
</svg>
