<?xml version="1.0" encoding="utf-8"?>
<!-- Generator: Adobe Illustrator 24.1.1, SVG Export Plug-In . SVG Version: 6.00 Build 0)  -->
<svg version="1.1" id="Layer_1" xmlns="http://www.w3.org/2000/svg" xmlns:xlink="http://www.w3.org/1999/xlink" x="0px" y="0px"
	 viewBox="0 0 682 459" style="enable-background:new 0 0 682 459;" xml:space="preserve">
<style type="text/css">
	.st0{fill:#1560BD;}
	.st1{fill:#074175;}
	.st2{font-family:'NEXTART';}
	.st3{font-size:49.9741px;}
	.st4{font-family:'Nexa-Light';}
	.st5{font-size:45.2304px;}
</style>
<path class="st0" d="M329.93,258.81c-0.06-2.65,0.54-5.58-2.8-7.05c-0.63-0.27-1.01-1.36-1.3-2.15c-0.86-2.46-2.77-3.5-5.07-4.21
	c-1.89-0.57-2.71-0.1-3.15,1.95c-0.57,2.63-1.62,5.15-2.47,7.73c-0.27,0-0.54,0.02-0.81,0.02c-0.93-2.17-2.12-4.07-4.66-2.5
	c-2.74,1.71-5.42,1.74-8.14,0.25c-2.6-1.43-4.88-1-6.64,1.2c-1.79,2.23-3.82,2.46-6.38,1.76c-4.18-1.14-4.18-1.05-5.96,2.76
	c-0.25,0.55-0.74,1.01-1.58,2.14c-2.04-4.12-4.21-7.64-5.58-11.44c-1.98-5.5-1.73-5.64-7.7-6.07c-2.38-0.17-3.31-1.11-2.66-3.49
	c1.33-4.8,0.02-8.67-3.55-12.23c-3.52-3.53-6.62-7.46-5.42-13.18c0.24-1.06-0.76-2.38-1.19-3.58c-1.19,0.48-2.39,0.9-3.53,1.44
	c-0.41,0.19-0.74,0.62-1.01,1.01c-2.25,3.34-5.75,4.52-8.6,5.42c-2.14-1.19-3.72-2.09-5.18-2.92c-0.1-1.84-0.02-3.66-0.3-5.42
	c-0.3-1.84,0.06-2.82,2.04-3.33c0.78-0.21,1.73-1.54,1.79-2.41c0.1-1.46-0.17-3.11-0.78-4.45c-2.46-5.4-2.15-10.44,0.84-15.62
	c1.98-3.44,1.81-7.26,0.22-11.11c-0.67,0.3-1.03,0.4-1.31,0.6c-3.41,2.34-3.82,2.25-6.73-0.65c-1.19-1.2-2.57-2.3-4.04-3.12
	c-1.58-0.89-2.46-1.81-2.39-3.79c0.08-2.71-0.6-5.37-3.58-6.21c-3.2-0.92-4.8-2.76-4.91-6.1c-0.06-2.22-1.08-3.55-3.56-4.06
	c-5.18-1.05-7.3-3.88-6.88-9.08c0.29-3.52-0.63-6.4-2.96-8.95c-1.47-1.63-3.04-3.23-4.25-5.05c-0.86-1.28-1.68-2.95-1.66-4.42
	c0.05-5.85,0.71-11.68,0.63-17.51c-0.08-6.08-0.78-12.15-1.22-18.44h-26.87v3.09c-0.21,17.82-0.32,35.66-0.63,53.5
	c-0.16,9.01-0.27,18.06-1.17,27.01c-0.65,6.31-0.08,12.17,2.3,17.97c0.32,0.76,0.49,1.68,0.44,2.5c-0.4,6.91,1.77,12.4,7.57,16.64
	c4.31,3.14,4.66,6.83,2.27,11.47c-1.09,2.12-1.9,4.4-2.92,6.56c-1.03,2.19-1.95,4.48-3.31,6.46c-1.46,2.11-2.87,3.94-2.14,6.8
	c0.22,0.84-0.62,2.12-1.25,2.99c-2.55,3.58-5.4,6.97-7.81,10.65c-3.41,5.23-1.79,9.76,3.98,12.07c2.66,1.06,3.26,2.41,2.34,5.2
	c-0.36,1.09-1.22,2.36-0.92,3.23c0.92,2.66-0.21,4.85-0.97,7.21c-0.52,1.62-0.97,3.33-1.03,5.01c-0.24,5.72-0.46,11.42-0.67,17.14
	l3.37-1.62c0.21-5.34,0.41-10.69,0.62-16.03c0.02-0.48-0.05-1.03,0.17-1.41c2.57-4.36,1.82-9.43,2.96-14.08
	c0.87-3.56-0.87-6.24-4.69-7.76c-3.64-1.46-4.55-3.87-2.34-7.11c2.63-3.88,5.69-7.48,8.24-11.41c0.92-1.43,0.87-3.49,1.31-5.23
	c0.25-0.95,0.4-2.04,0.97-2.77c2.14-2.71,4.18-5.32,4.69-9c0.29-2.09,1.44-4.23,2.72-5.97c2.71-3.68,2.08-7.24-0.02-10.71
	c-1.12-1.85-2.52-3.74-4.26-4.96c-4.12-2.9-5.16-6.96-5.67-11.61c-0.44-4.02-1.82-7.94-2.39-11.95c-0.43-2.99-0.38-6.07-0.27-9.09
	c0.41-11.5,1.12-22.99,1.38-34.49c0.3-14.48,0.25-28.96,0.36-43.44v-3.45h20.71c0.25,5.4,0.68,10.6,0.68,15.81
	c0.02,5.75-0.54,11.5-0.43,17.24c0.03,1.95,1.12,3.98,2.08,5.78c0.7,1.33,1.87,2.42,2.96,3.5c2.84,2.77,4.15,5.88,3.68,10.03
	c-0.68,5.91,2.01,7.45,8.63,10.88c0.9,0.48,1.96,1.57,2.04,2.46c0.35,3.72,2.19,6.1,5.67,7.11c2.03,0.6,2.79,1.85,2.66,3.83
	c-0.21,3.06,1.2,5.05,3.93,6.37c1.09,0.52,2.12,1.3,2.98,2.15c3.69,3.69,3.77,3.77,8.73,3.99c-0.33,1.31-0.36,2.74-1,3.8
	c-3.66,5.99-3.85,12.07-0.97,18.38c0.19,0.43,0.33,0.9,0.44,1.36c0.06,0.27,0,0.55,0,1.08c-3.64,1.33-4.63,4.02-3.55,7.75
	c0.24,0.87,0.11,1.92-0.1,2.84c-0.52,2.36,0.4,3.9,2.49,4.88c0.41,0.19,1.08,0.27,1.24,0.59c1.9,3.85,4.74,2.79,7.53,1.44
	c2.77-1.36,5.45-2.9,8.19-4.36c-0.27,5.32,3.15,9.39,6.78,13.13c2.58,2.65,3.33,5.37,2.61,8.84c-1.08,5.2,0.65,7.45,5.91,7.59
	c2.41,0.06,3.45,0.82,4.36,3.34c1.49,4.17,3.77,8.13,6.1,11.93c1.63,2.68,4.85,2.34,6.61-0.32c0.52-0.79,0.9-1.66,1.41-2.6
	c1,0.21,1.92,0.41,2.84,0.6c3.06,0.6,5.59-0.16,7.81-2.47c0.68-0.7,2.3-1.35,3.03-1.01c3.52,1.66,6.96,1.84,10.41,0.25
	c2.9,3.53,4.97,3.56,7.49-0.11c1.38-2.01,2.27-4.34,3.52-6.83c0.36,0.4,0.9,0.84,1.27,1.39c0.46,0.73,0.57,1.81,1.19,2.27
	c3.47,2.6,2.88,6.34,2.96,9.9c0.59,26.38,1.19,52.74,1.79,79.1c0.02,1.05,0,2.08,0,3.52c-9.93,0.33-19.87,0.59-29.78,0.79
	c-0.03,0.14-0.06,0.3-0.11,0.44c-0.35,1.17-0.86,2.15-1.52,2.95c11.6-0.22,23.18-0.54,34.76-0.95c0.05-0.86,0.13-1.33,0.11-1.81
	C331.31,317.49,330.63,288.15,329.93,258.81z"/>
<text transform="matrix(1 0 0 1 221.9301 123.0324)" class="st1 st2 st3">BRAIN GAINS</text>
<text transform="matrix(1 0 0 1 249.0892 174.5704)" class="st1 st2 st3">TUTORING</text>
<text transform="matrix(1 0 0 1 315.9213 218.0802)" class="st0 st4 st5">Idaho</text>
<g>
	<g>
		<path class="st0" d="M166.7,302.06l3.37-1.62C168.89,300.83,167.76,301.38,166.7,302.06z"/>
	</g>
</g>
<g>
	<path class="st0" d="M355.32-57.58c0.21-5.1,0.42-9.98,0.61-14.87c0.32-8.47,0.6-16.94,0.96-25.4c0.04-1.06,0.33-2.14,0.66-3.17
		c0.48-1.49,1.19-2.86,0.61-4.55c-0.19-0.54,0.35-1.35,0.58-2.03c0.58-1.76,0.21-2.62-1.48-3.29c-3.65-1.46-4.66-4.32-2.51-7.61
		c1.51-2.32,3.31-4.46,4.93-6.72c0.4-0.56,0.92-1.36,0.79-1.89c-0.46-1.79,0.43-2.96,1.35-4.29c0.86-1.24,1.44-2.69,2.09-4.08
		c0.64-1.37,1.15-2.8,1.84-4.14c1.51-2.93,1.29-5.26-1.43-7.24c-3.66-2.67-5.03-6.14-4.78-10.49c0.03-0.52-0.07-1.1-0.27-1.59
		c-1.51-3.65-1.86-7.35-1.46-11.34c0.57-5.65,0.64-11.36,0.74-17.05c0.2-11.26,0.27-22.52,0.4-33.78c0.01-0.65,0-1.3,0-1.94
		c5.69,0,11.16,0,16.97,0c0.28,3.97,0.71,7.8,0.77,11.63c0.05,3.68-0.37,7.37-0.4,11.05c-0.01,0.94,0.51,1.98,1.05,2.79
		c0.76,1.15,1.75,2.16,2.68,3.19c1.47,1.61,2.05,3.44,1.87,5.65c-0.27,3.28,1.06,5.07,4.34,5.74c1.57,0.32,2.21,1.15,2.25,2.56
		c0.07,2.11,1.07,3.27,3.1,3.85c1.88,0.54,2.31,2.22,2.25,3.92c-0.04,1.25,0.52,1.83,1.51,2.39c0.93,0.52,1.8,1.21,2.56,1.97
		c1.83,1.83,2.09,1.89,4.24,0.42c0.19-0.13,0.42-0.2,0.83-0.39c1,2.43,1.11,4.84-0.14,7.01c-1.89,3.27-2.07,6.46-0.53,9.87
		c0.38,0.85,0.55,1.89,0.49,2.81c-0.04,0.55-0.63,1.39-1.12,1.52c-1.25,0.32-1.48,0.93-1.3,2.1c0.18,1.11,0.13,2.26,0.19,3.42
		c0.92,0.52,1.93,1.08,3.28,1.84c1.8-0.58,4.01-1.32,5.43-3.43c0.17-0.25,0.38-0.52,0.63-0.64c0.73-0.34,1.49-0.61,2.24-0.91
		c0.27,0.76,0.89,1.59,0.75,2.25c-0.77,3.61,1.19,6.1,3.42,8.32c2.24,2.25,3.07,4.69,2.24,7.72c-0.41,1.5,0.18,2.09,1.68,2.19
		c3.77,0.27,3.61,0.36,4.86,3.83c0.86,2.4,2.23,4.63,3.53,7.22c0.53-0.71,0.83-1,1-1.35c1.12-2.4,1.12-2.46,3.76-1.74
		c1.61,0.44,2.9,0.3,4.03-1.11c1.12-1.4,2.56-1.67,4.2-0.77c1.72,0.94,3.41,0.92,5.14-0.15c1.6-0.99,2.35,0.2,2.94,1.58
		c0.17,0,0.34-0.01,0.51-0.01c0.53-1.62,1.2-3.22,1.55-4.88c0.28-1.29,0.8-1.59,1.99-1.23c1.45,0.45,2.66,1.1,3.2,2.65
		c0.18,0.5,0.42,1.19,0.82,1.37c2.11,0.92,1.73,2.77,1.77,4.45c0.44,18.52,0.87,37.04,1.3,55.55c0.01,0.3-0.04,0.6-0.07,1.14
		C425.69-56.38,390.67-56.56,355.32-57.58z M458.62-59.67c0-0.91,0.01-1.56,0-2.22c-0.37-16.64-0.75-33.29-1.13-49.93
		c-0.05-2.25,0.32-4.61-1.87-6.25c-0.39-0.29-0.46-0.97-0.75-1.43c-0.22-0.35-0.56-0.63-0.79-0.89c-0.79,1.57-1.35,3.05-2.22,4.31
		c-1.6,2.32-2.9,2.3-4.74,0.07c-2.18,1.01-4.35,0.89-6.57-0.15c-0.45-0.21-1.48,0.2-1.91,0.64c-1.4,1.46-3,1.94-4.93,1.56
		c-0.58-0.12-1.16-0.25-1.79-0.38c-0.32,0.59-0.57,1.14-0.89,1.64c-1.11,1.69-3.14,1.89-4.17,0.2c-1.47-2.4-2.91-4.9-3.85-7.53
		c-0.57-1.58-1.23-2.07-2.75-2.11c-3.32-0.09-4.41-1.51-3.73-4.79c0.45-2.19-0.02-3.92-1.65-5.59c-2.29-2.36-4.45-4.93-4.29-8.29
		c-1.72,0.92-3.41,1.9-5.17,2.75c-1.76,0.86-3.55,1.52-4.75-0.9c-0.1-0.21-0.52-0.25-0.78-0.38c-1.31-0.62-1.9-1.59-1.57-3.08
		c0.13-0.58,0.21-1.24,0.06-1.79c-0.68-2.35-0.05-4.05,2.25-4.89c0-0.32,0.03-0.51-0.01-0.68c-0.07-0.29-0.16-0.59-0.28-0.86
		c-1.81-3.98-1.7-7.82,0.61-11.6c0.41-0.66,0.42-1.56,0.63-2.4c-3.13-0.14-3.18-0.19-5.51-2.52c-0.54-0.54-1.2-1.03-1.89-1.36
		c-1.71-0.82-2.6-2.09-2.47-4.02c0.08-1.24-0.4-2.04-1.68-2.41c-2.2-0.65-3.36-2.15-3.58-4.49c-0.05-0.56-0.72-1.25-1.28-1.55
		c-4.19-2.18-5.88-3.14-5.46-6.88c0.3-2.61-0.52-4.58-2.32-6.33c-0.69-0.67-1.43-1.37-1.87-2.2c-0.6-1.14-1.29-2.42-1.32-3.65
		c-0.06-3.62,0.29-7.25,0.28-10.88c-0.01-3.29-0.27-6.58-0.43-9.98c-4.57,0-8.71,0-13.08,0c0,0.76,0,1.47,0,2.18
		c-0.07,9.14-0.04,18.28-0.23,27.42c-0.15,7.26-0.61,14.51-0.87,21.77c-0.07,1.91-0.09,3.85,0.17,5.74c0.36,2.54,1.23,5,1.5,7.54
		c0.32,2.94,0.98,5.5,3.59,7.33c1.09,0.77,1.98,1.96,2.68,3.13c1.32,2.19,1.73,4.44,0.01,6.77c-0.81,1.1-1.54,2.45-1.72,3.76
		c-0.32,2.33-1.61,3.97-2.96,5.68c-0.36,0.46-0.45,1.15-0.61,1.75c-0.29,1.11-0.25,2.4-0.84,3.31c-1.61,2.48-3.54,4.75-5.2,7.2
		c-1.39,2.05-0.82,3.57,1.48,4.49c2.4,0.96,3.51,2.65,2.96,4.9c-0.72,2.94-0.25,6.14-1.87,8.89c-0.14,0.24-0.11,0.59-0.12,0.89
		c-0.47,12.1-0.93,24.19-1.39,36.29c-0.03,0.7,0,1.41,0,2.26C391.32-58.71,424.85-58.55,458.62-59.67z"/>
	<g>
		<g>
			<path class="st0" d="M423.21-84.3c-0.09,0.4-0.17,0.81-0.28,1.21c-0.59,2.1-1.82,3.74-3.69,4.87c-0.34,0.2-0.46,0.35-0.35,0.78
				c0.83,3.44-0.56,6.89-3.69,9.16c-2.46,1.78-5.24,2.53-8.26,2.44c-0.32-0.01-0.64-0.04-1.01-0.06c-0.01,0.19-0.04,0.36-0.04,0.53
				c0,1.16,0,2.31,0,3.47c-0.01,1.41-0.79,2.56-2.03,3.02c-1.24,0.46-2.59,0.11-3.52-0.94c-1.85-2.11-3.7-4.22-5.53-6.35
				c-0.39-0.46-0.83-0.65-1.44-0.69c-1.99-0.15-3.43-1.16-4.32-2.94c-0.09-0.17-0.16-0.36-0.26-0.58c-2.85,1.64-5.82,2.01-8.9,0.84
				c-3.07-1.17-5.12-3.35-6.19-6.48c-1.61,0.06-3.16-0.19-4.6-0.88c-3.68-1.77-5.71-4.7-6.04-8.79c-0.03-0.4-0.13-0.83-0.3-1.19
				c-1.47-3.19-0.71-7.05,1.91-9.41c0.31-0.28,0.44-0.56,0.47-0.97c0.26-3.63,3.43-6.89,7.06-7.22c0.76-0.07,1.26-0.31,1.73-0.95
				c2.23-2.98,6.12-4,9.57-2.56c0.38,0.16,0.64,0.11,0.97-0.11c3.24-2.04,6.55-2.11,9.87-0.2c0.34,0.19,0.61,0.25,0.99,0.14
				c4.11-1.1,7.83-0.32,11.18,2.31c0.24,0.18,0.55,0.33,0.84,0.37c6.23,0.82,10.73,5.93,10.73,12.2c0,0.36,0.07,0.56,0.43,0.73
				c2.56,1.24,4.08,3.28,4.59,6.08c0.02,0.09,0.07,0.18,0.11,0.27C423.21-85.57,423.21-84.93,423.21-84.3z M409.08-103.01
				c0.31,0.6,0.58,1.06,0.79,1.55c0.21,0.5-0.01,1.02-0.48,1.27c-0.45,0.23-0.96,0.12-1.27-0.31c-0.13-0.18-0.22-0.38-0.32-0.57
				c-2.27-4.36-7.23-6.49-11.95-5.1c-0.85,0.25-1.65,0.67-2.45,1.07c-0.73,0.38-1.29,0.36-1.64-0.16c-0.35-0.52-0.17-1.09,0.5-1.55
				c0.06-0.04,0.11-0.1,0.16-0.15c-1.92-1.04-5.07-0.83-6.52,0.42c0.38,0.46,0.79,0.89,1.13,1.37c0.34,0.47,0.24,1.05-0.19,1.39
				c-0.44,0.35-0.98,0.3-1.39-0.14c-0.14-0.14-0.25-0.31-0.38-0.46c-2.27-2.79-6.53-2.98-9.04-0.4c-0.16,0.16-0.29,0.34-0.46,0.55
				c0.28,0.1,0.46,0.16,0.65,0.24c0.18,0.07,0.37,0.14,0.54,0.24c0.48,0.28,0.65,0.8,0.44,1.28c-0.21,0.49-0.71,0.72-1.23,0.57
				c-0.15-0.04-0.29-0.12-0.44-0.18c-2.5-1-5.31-0.29-7.03,1.79c-0.55,0.66-0.95,1.39-1.16,2.29c0.59-0.13,1.11-0.27,1.63-0.36
				c0.55-0.09,1.06,0.29,1.15,0.8c0.1,0.55-0.2,1.03-0.75,1.18c-0.21,0.06-0.43,0.08-0.64,0.13c-3.06,0.71-5.11,3.75-4.61,6.85
				c0.34,2.09,1.48,3.61,3.34,4.6c0.63,0.33,0.83,0.9,0.55,1.43c-0.28,0.53-0.87,0.68-1.5,0.36c-0.29-0.15-0.58-0.31-0.89-0.49
				c0.57,2.88,4.74,5.8,7.61,5.34c0-0.53-0.02-1.06,0.01-1.59c0.03-0.57,0.48-0.97,1.02-0.97c0.54,0,0.96,0.42,1,0.98
				c0.01,0.14,0,0.28,0,0.42c-0.04,5.19,4.32,9.03,9.44,8.27c2.16-0.32,3.89-1.42,5.23-3.16c-0.46-0.35-0.91-0.65-1.32-1
				c-0.49-0.41-0.56-0.97-0.21-1.43c0.35-0.45,0.92-0.53,1.44-0.18c0.16,0.11,0.32,0.24,0.48,0.36c5.76,4.34,14.07,2.74,17.81-3.42
				c0.22-0.36,0.25-0.62,0.01-1.01c-0.37-0.61-0.65-1.27-0.91-1.94c-0.22-0.57,0.08-1.1,0.62-1.3c0.51-0.18,1.01,0.05,1.27,0.6
				c0.07,0.16,0.13,0.33,0.19,0.5c0.94,2.42,3.42,4.07,5.93,3.93c2.74-0.15,4.97-1.93,5.67-4.51c0.69-2.55-0.33-5.24-2.53-6.69
				c-0.19-0.12-0.39-0.22-0.6-0.34c-0.2,0.61-0.34,1.15-0.54,1.67c-0.22,0.58-0.77,0.83-1.3,0.63c-0.54-0.2-0.78-0.71-0.61-1.31
				c0.03-0.11,0.08-0.23,0.11-0.34c1.07-3.28,0.67-6.37-1.28-9.22C412.98-101,411.28-102.24,409.08-103.01z M398.84-71.97
				c0.28,0.34,0.49,0.63,0.73,0.88c3.85,4.18,11.46,4.31,15.46,0.27c0.83-0.83,1.45-1.79,1.79-2.92c0.35-1.16,0.4-2.33-0.02-3.5
				c-2.55,0.5-4.81-0.05-6.87-1.6C407.33-74.8,403.65-72.53,398.84-71.97z M403.84-63.86c0-0.64-0.03-1.28,0.01-1.91
				c0.03-0.43-0.14-0.57-0.53-0.68c-2.89-0.83-5.07-2.56-6.62-5.14c-0.13-0.21-0.42-0.39-0.67-0.45c-0.94-0.25-1.96-0.3-2.82-0.69
				c-1.06-0.48-1.8-0.41-2.36,0.64c-0.12,0.22-0.24,0.51-0.19,0.73c0.26,1.42,1.44,2.44,2.89,2.47c1.11,0.02,1.98,0.46,2.7,1.29
				c1.83,2.12,3.69,4.23,5.53,6.35c0.38,0.43,0.82,0.65,1.37,0.45c0.53-0.2,0.71-0.65,0.7-1.2
				C403.84-62.62,403.84-63.24,403.84-63.86z"/>
			<path class="st0" d="M390.57-82.12c-3.59-0.17-6.55-1.57-8.84-4.34c-0.48-0.58-0.44-1.18,0.07-1.57
				c0.48-0.37,1.05-0.27,1.51,0.28c1.64,1.97,3.7,3.19,6.25,3.48c3.25,0.37,5.9-0.87,8.08-3.24c0.09-0.1,0.17-0.22,0.27-0.32
				c0.45-0.49,1.03-0.55,1.48-0.17c0.45,0.39,0.5,0.96,0.07,1.49C397.16-83.7,394.17-82.28,390.57-82.12z"/>
			<path class="st0" d="M384.44-98.45c2.16-0.01,3.94,1.64,4.09,3.8c0.05,0.7-0.3,1.2-0.88,1.27c-0.64,0.08-1.06-0.32-1.15-1.07
				c-0.14-1.18-0.93-1.95-2.02-1.95c-1.11-0.01-1.9,0.73-2.05,1.91c-0.09,0.77-0.5,1.17-1.12,1.12c-0.62-0.05-0.95-0.51-0.91-1.3
				C380.5-96.75,382.3-98.44,384.44-98.45z"/>
			<path class="st0" d="M396.7-98.44c2.21,0.01,4.04,1.78,4.06,3.93c0,0.69-0.35,1.11-0.94,1.15c-0.59,0.03-1.01-0.35-1.09-1.02
				c-0.16-1.29-0.92-2.03-2.07-2.01c-1.11,0.02-1.87,0.78-2.01,2.02c-0.07,0.67-0.49,1.05-1.09,1.01c-0.58-0.04-0.95-0.49-0.94-1.15
				C392.64-96.66,394.51-98.45,396.7-98.44z"/>
		</g>
		<path class="st0" d="M434.12-105.96c0.03-0.16,0.03-0.22,0.04-0.28c0.04-0.23,0.06-0.46-0.16-0.6c-0.22-0.14-0.43-0.03-0.62,0.1
			c-0.17,0.12-0.34,0.25-0.59,0.44c0.09-0.31,0.16-0.54,0.23-0.77c-0.02-0.03-0.04-0.05-0.06-0.07c-0.15,0.09-0.33,0.16-0.46,0.28
			c-0.92,0.92-1.84,1.83-2.72,2.78c-0.39,0.43-0.29,1,0.2,1.43c0.07-1.55,1.25-2.38,2.02-3.47c0.04,0.02,0.08,0.05,0.13,0.07
			c-0.06,0.13-0.11,0.27-0.19,0.38c-0.21,0.3-0.43,0.59-0.65,0.88c-0.46,0.61-0.78,1.28-0.91,2.04c-0.06,0.38,0.04,0.71,0.34,0.95
			c0.36,0.3,0.73,0.58,1.1,0.86c0.31,0.23,0.67,0.24,1.12,0.16c-0.32-0.22-0.58-0.39-0.84-0.58c-1.03-0.72-0.95-0.73-0.65-1.74
			c0.22-0.72,0.55-1.41,0.84-2.11c0.03-0.07,0.08-0.14,0.13-0.2c0.02-0.02,0.05-0.03,0.15-0.08c-0.12,0.38-0.23,0.69-0.33,1.01
			c-0.19,0.57-0.38,1.13-0.57,1.7c-0.14,0.43-0.04,0.77,0.32,1.05c0.36,0.28,0.69,0.61,1.08,0.84c0.28,0.17,0.63,0.21,0.94,0.3
			c0.01-0.03,0.03-0.06,0.04-0.1c-0.24-0.18-0.47-0.37-0.73-0.52c-0.26-0.16-0.39-0.38-0.41-0.67c-0.09-1.22,0.33-2.3,0.92-3.33
			c0.04,0.01,0.09,0.02,0.13,0.03c-0.05,0.23-0.06,0.47-0.15,0.69c-0.19,0.49-0.42,0.97-0.6,1.46c-0.29,0.77-0.13,1.29,0.51,1.8
			c0.24,0.19,0.49,0.36,0.74,0.54c0.39,0.27,0.77,0.26,1.14-0.05c0.19-0.16,0.37-0.35,0.55-0.52c0.21-0.2,0.16-0.4,0-0.59
			c-0.15-0.18-0.52-0.28-0.66-0.15c-0.05,0.05-0.06,0.18-0.05,0.27c0.02,0.23,0.05,0.46,0.08,0.69c-0.04,0-0.08,0.01-0.12,0.01
			c-0.01-0.09-0.03-0.19-0.04-0.28c-0.03-0.37-0.07-0.39-0.4-0.26c-0.09,0.03-0.18,0.05-0.27,0.08c-0.01-0.02-0.02-0.04-0.04-0.07
			c0.08-0.07,0.14-0.15,0.23-0.21c0.24-0.17,0.28-0.37,0.19-0.64c-0.11-0.33-0.21-0.66-0.3-0.99c-0.03-0.11-0.02-0.23-0.02-0.35
			c0.03-0.01,0.06-0.02,0.1-0.03c0.17,0.41,0.35,0.83,0.56,1.33c0.29-0.48,0.54-0.88,0.79-1.29c0.03,0.01,0.05,0.02,0.08,0.04
			c-0.11,0.3-0.21,0.61-0.35,0.9c-0.1,0.23-0.09,0.38,0.12,0.55c0.3,0.23,0.48,0.55,0.65,0.9c0.35,0.74,0.89,1.32,1.65,1.67
			c0.4,0.18,0.76,0.16,1.11-0.11c0.16-0.12,0.33-0.24,0.52-0.38c0.04,0.11,0.08,0.18,0.1,0.26c0.41,1.73,0.88,3.43,1.54,5.09
			c0.38,0.96,0.39,1.96,0.14,2.96c-0.4,1.63-0.43,3.27-0.07,4.91c0.18,0.84,0.57,1.6,1.14,2.26c0.73,0.84,1.44,1.71,2.15,2.56
			c0.04,0.05,0.07,0.1,0.11,0.15c-0.03,0.02-0.05,0.06-0.07,0.06c-1.15-0.02-2.29-0.09-3.37-0.55c-0.21-0.09-0.43-0.2-0.6-0.35
			c-0.67-0.59-1.45-0.83-2.33-0.75c-0.06,0.01-0.12,0-0.22,0c0.04-0.08,0.07-0.14,0.1-0.19c0.19-0.26,0.4-0.51,0.57-0.79
			c0.41-0.64,0.33-1.32-0.23-1.84c-0.84-0.79-1.84-1.29-2.92-1.64c-0.66-0.21-1.32-0.41-2.02-0.35c-0.49,0.05-0.99,0.11-1.45,0.29
			c-1.79,0.7-3.48,1.59-5.14,2.56c-0.25,0.14-0.52,0.24-0.79,0.36c-0.03-0.03-0.06-0.06-0.09-0.09c0.09-0.16,0.16-0.36,0.28-0.49
			c0.51-0.53,1.04-1.05,1.58-1.56c0.39-0.36,0.66-0.77,0.55-1.31c-0.29-1.41-0.86-2.68-2.01-3.62c-1.03-0.84-2.21-1.14-3.52-0.91
			c-0.06,0.01-0.12,0.01-0.25,0.01c0.12-0.14,0.19-0.25,0.28-0.33c0.67-0.61,1.46-0.73,2.33-0.54c1.24,0.27,2.2,0.96,2.96,1.94
			c0.61,0.8,1.17,1.63,1.79,2.42c0.47,0.61,1.01,0.77,1.67,0.39c1.81-1.05,4.92-0.36,6.44,1.28c0.32,0.34,0.63,0.67,1,0.99
			c-0.05-0.26-0.1-0.52-0.16-0.79c-0.29-1.4-0.17-2.74,0.48-4.05c0.4-0.8,0.41-1.71,0.35-2.6c-0.09-1.5-0.68-2.83-1.4-4.11
			c-0.25-0.45-1.08-0.73-1.56-0.61c-0.85,0.2-1.72,0.2-2.55-0.07c-0.7-0.22-1.37-0.35-2.11-0.18c-0.9,0.2-1.77-0.09-2.61-0.42
			c-0.25-0.1-0.51-0.2-0.76-0.31c-0.52-0.22-0.62-0.73-0.21-1.11c0.21-0.2,0.48-0.34,0.72-0.51c0.09-0.06,0.18-0.12,0.29-0.19
			c-0.27-0.3-0.52-0.57-0.76-0.86c-0.48-0.58-0.49-0.82,0.01-1.37c0.89-0.98,1.8-1.95,2.71-2.92c0.16-0.17,0.34-0.32,0.53-0.46
			c0.38-0.28,0.69-0.24,0.98,0.12c0.11,0.15,0.2,0.21,0.4,0.15c0.22-0.07,0.4,0.04,0.56,0.21c0.07,0.07,0.19,0.1,0.3,0.14
			c0.15,0.05,0.31,0.08,0.45,0.15c0.26,0.12,0.52,0.27,0.78,0.41c1.73,0.94,3.46,1.87,5.18,2.82c0.24,0.14,0.46,0.38,0.61,0.62
			c1.88,3.09,3.79,6.17,5.59,9.3c1.04,1.81,1.87,3.75,2.33,5.79c0.29,1.27,0.42,2.58,0.58,3.87c0.17,1.27,0.29,2.54,0.44,3.81
			c0.04,0.37-0.05,0.7-0.3,0.99c-0.19,0.22-0.4,0.43-0.58,0.67c-0.76,0.98-1.79,1.49-3,1.69c-2.12,0.36-4.23,0.75-6.35,1.1
			c-1.35,0.22-2.7,0.4-4.06,0.57c-1.46,0.18-2.9,0.05-4.31-0.35c-1.08-0.3-2.13-0.72-3.19-1.09c-0.13-0.05-0.26-0.11-0.41-0.17
			c-0.34,0.61-0.68,1.21-1.02,1.81c-0.2,0.34-0.39,0.69-0.6,1.02c-0.19,0.3-0.42,0.29-0.61,0c-0.01-0.01-0.01-0.02-0.02-0.03
			c-0.6-0.97-0.6-0.97-0.05-1.98c0.28-0.51,0.54-1.02,0.83-1.52c0.12-0.21,0.07-0.36-0.06-0.55c-0.46-0.66-0.89-1.32-1.34-1.99
			c-0.03-0.05-0.04-0.1-0.02-0.21c0.08,0.06,0.16,0.12,0.24,0.19c2.29,2.14,5.04,3.24,8.14,3.5c0.51,0.04,1.04-0.01,1.53-0.13
			c1.6-0.41,3.18-0.89,4.78-1.31c1.84-0.49,3.73-0.51,5.62-0.4c0.6,0.04,1.22,0.03,1.82-0.03c0.59-0.07,1.04-0.43,1.36-0.93
			c0.2-0.32,0.39-0.64,0.6-0.95c0.17-0.26,0.19-0.51,0.08-0.81c-0.38-1.02-0.75-2.03-1.1-3.06c-0.42-1.24-0.51-2.54-0.65-3.83
			c-0.24-2.24-0.85-4.34-2.01-6.29c-0.94-1.59-1.73-3.28-2.64-4.9c-0.67-1.19-1.42-2.34-2.15-3.5c-0.13-0.2-0.3-0.39-0.5-0.52
			c-1.18-0.76-2.36-1.54-3.58-2.23c-0.63-0.35-1.34-0.55-2.03-0.8C434.88-106.33,434.51-106.25,434.12-105.96z M431.84-100.12
			c-0.16-0.24-0.28-0.51-0.48-0.68c-0.23-0.21-0.52-0.35-0.8-0.49c-0.36-0.19-0.81-0.01-0.97,0.35c-0.18,0.4-0.08,0.7,0.37,0.87
			c0.92,0.33,1.87,0.58,2.85,0.38c0.73-0.15,1.42-0.1,2.13,0.11c0.64,0.19,1.29,0.23,1.94,0.01c0.24-0.08,0.3-0.21,0.18-0.44
			c-0.11-0.19-0.2-0.4-0.31-0.59c-0.22-0.4-0.4-0.44-0.73-0.12c-0.26,0.25-0.55,0.43-0.91,0.44c-0.41,0.01-0.83,0.02-1.24-0.01
			c-0.37-0.02-0.74-0.09-1.11-0.14c-0.28-0.04-0.55-0.08-0.85-0.13C431.89-100.41,431.87-100.26,431.84-100.12z"/>
		<path class="st0" d="M426.98-82.15c3.5,2.07,7.02,1.79,10.63,0.15c-0.07,0.11-0.1,0.18-0.14,0.23c-1.82,2.02-4.44,3.05-7.24,1.87
			c-1.2-0.5-2.24-1.25-3.18-2.15C427.02-82.08,427-82.12,426.98-82.15z"/>
		<path class="st0" d="M446.98-86.46c-0.28-2.35-0.86-4.63-1.6-6.9C446.59-92.6,447.28-89.61,446.98-86.46z"/>
	</g>
	<text transform="matrix(1 0 0 1 416.6501 -174.1579)"><tspan x="0" y="0" class="st1 st2" style="font-size:36.3316px;">BRAIN GAINS</tspan><tspan x="0" y="43.6" class="st1 st2" style="font-size:36.3316px;"> TUTORING</tspan></text>
	<text transform="matrix(1 0 0 1 466.3787 -91.1335)" class="st0 st4" style="font-size:32.8828px;">Idaho</text>
</g>
<g>
	<g>
		<path class="st0" d="M244.35,356.59c-1.11,0.45-2.25,0.81-3.41,1.08c0.31,1.6,0.15,3.19-0.33,4.79c-0.58,1.98-1.68,3.66-3.12,5.11
			c-7.01,7.06-20.31,6.82-27.05-0.48c-0.42-0.46-0.79-0.95-1.28-1.55c7.18-0.84,12.92-3.86,17.28-9.11
			c-0.01-0.01-0.02-0.01-0.04-0.01c-1.12-0.47-2.16-1.06-3.12-1.73c-7.21,8.26-19.91,9.85-28.98,3.02
			c-0.27-0.21-0.54-0.44-0.83-0.64c-0.89-0.6-1.91-0.47-2.51,0.33c-0.61,0.8-0.5,1.79,0.36,2.5c0.72,0.6,1.49,1.13,2.31,1.74
			c-2.36,3.05-5.38,4.97-9.16,5.54c-8.97,1.33-16.59-5.37-16.52-14.46c0-0.24,0.01-0.49,0-0.72c-0.07-1-0.81-1.71-1.75-1.72
			c-0.94-0.01-1.73,0.69-1.78,1.69c-0.06,0.93-0.01,1.86-0.01,2.79c-5.03,0.8-12.33-4.31-13.32-9.35c0.55,0.3,1.05,0.6,1.57,0.86
			c1.09,0.55,2.13,0.29,2.62-0.64c0.49-0.93,0.13-1.92-0.97-2.51c-3.26-1.74-5.26-4.39-5.85-8.05c-0.88-5.43,2.71-10.74,8.07-11.98
			c0.37-0.08,0.75-0.13,1.12-0.23c0.97-0.27,1.49-1.11,1.32-2.08c-0.17-0.9-1.04-1.56-2.01-1.4c-0.92,0.15-1.82,0.4-2.86,0.63
			c0.36-1.57,1.07-2.85,2.03-4.01c3.02-3.64,7.92-4.87,12.29-3.13c0.26,0.1,0.51,0.24,0.78,0.33c0.92,0.26,1.78-0.16,2.16-1.01
			c0.37-0.84,0.07-1.75-0.78-2.24c-0.3-0.17-0.63-0.3-0.95-0.43c-0.32-0.13-0.64-0.24-1.13-0.41c0.3-0.37,0.53-0.69,0.81-0.97
			c4.39-4.51,11.84-4.17,15.82,0.7c0.22,0.27,0.42,0.56,0.66,0.81c0.72,0.76,1.67,0.84,2.44,0.24c0.74-0.58,0.92-1.6,0.33-2.42
			c-0.61-0.84-1.32-1.6-1.98-2.4c2.54-2.17,8.06-2.54,11.41-0.72c-0.1,0.1-0.18,0.19-0.29,0.26c-1.17,0.81-1.49,1.79-0.88,2.71
			c0.61,0.92,1.57,0.95,2.86,0.29c1.39-0.71,2.8-1.44,4.28-1.88c8.25-2.45,16.93,1.29,20.9,8.91c0.18,0.33,0.33,0.69,0.55,1
			c0.54,0.75,1.44,0.95,2.22,0.55c0.82-0.43,1.2-1.35,0.83-2.22c-0.37-0.86-0.84-1.67-1.38-2.71c3.86,1.35,6.82,3.51,8.99,6.68
			c0.62,0.9,1.15,1.82,1.59,2.75c1.41,0.19,2.81,0.5,4.18,0.91c-2.45-7.77-9.16-13.56-17.75-14.68c-0.52-0.07-1.06-0.32-1.48-0.64
			c-5.85-4.59-12.37-5.96-19.56-4.04c-0.68,0.18-1.15,0.1-1.74-0.24c-5.82-3.33-11.6-3.22-17.27,0.35c-0.59,0.38-1.03,0.47-1.7,0.18
			c-6.04-2.51-12.84-0.73-16.73,4.49c-0.84,1.12-1.7,1.54-3.04,1.66c-6.36,0.59-11.9,6.27-12.36,12.64
			c-0.05,0.71-0.27,1.2-0.81,1.69c-4.58,4.12-5.91,10.89-3.34,16.46c0.3,0.64,0.47,1.37,0.52,2.08c0.58,7.15,4.12,12.27,10.56,15.37
			c2.52,1.21,5.23,1.64,8.05,1.54c1.87,5.47,5.44,9.31,10.81,11.34c5.39,2.05,10.58,1.39,15.57-1.47c0.18,0.39,0.3,0.71,0.46,1.01
			c1.56,3.12,4.08,4.89,7.55,5.15c1.06,0.08,1.83,0.41,2.51,1.21c3.21,3.73,6.44,7.42,9.68,11.11c1.63,1.85,3.99,2.46,6.16,1.66
			c2.17-0.81,3.53-2.82,3.56-5.29c0.01-2.02,0-4.04,0.01-6.06c0-0.3,0.04-0.59,0.06-0.92c0.66,0.04,1.22,0.09,1.77,0.1
			c5.28,0.16,10.14-1.15,14.44-4.26C243.05,368.16,245.51,362.41,244.35,356.59z M217.94,376.39c-0.08,1.11-0.02,2.22-0.02,3.34
			c0,1.08-0.01,2.16,0.01,3.24c0.01,0.95-0.3,1.74-1.23,2.09c-0.97,0.37-1.73-0.01-2.39-0.78c-3.22-3.71-6.47-7.39-9.67-11.1
			c-1.26-1.46-2.78-2.22-4.72-2.26c-2.54-0.05-4.59-1.83-5.05-4.32c-0.07-0.4,0.13-0.9,0.34-1.29c0.97-1.82,2.27-1.94,4.12-1.11
			c1.52,0.68,3.3,0.78,4.94,1.2c0.43,0.12,0.95,0.42,1.17,0.8c2.7,4.5,6.53,7.53,11.57,8.99
			C217.69,375.39,217.99,375.63,217.94,376.39z"/>
		<path class="st0" d="M194.7,347.77c-6.29-0.29-11.46-2.75-15.46-7.6c-0.84-1.02-0.77-2.06,0.11-2.75c0.83-0.65,1.83-0.48,2.64,0.5
			c2.86,3.44,6.48,5.58,10.93,6.08c5.69,0.64,10.33-1.52,14.13-5.67c0.16-0.18,0.3-0.38,0.47-0.56c0.78-0.85,1.8-0.96,2.59-0.3
			c0.8,0.68,0.87,1.68,0.12,2.6C206.23,345.02,201,347.5,194.7,347.77z"/>
		<path class="st0" d="M183.97,319.22c3.77-0.02,6.89,2.87,7.16,6.64c0.09,1.23-0.52,2.1-1.55,2.23c-1.11,0.13-1.85-0.55-2-1.87
			c-0.25-2.07-1.62-3.4-3.54-3.42c-1.94-0.02-3.33,1.28-3.58,3.34c-0.16,1.34-0.87,2.04-1.97,1.95c-1.09-0.08-1.66-0.89-1.59-2.27
			C177.09,322.18,180.24,319.24,183.97,319.22z"/>
		<path class="st0" d="M205.42,319.23c3.86,0.01,7.07,3.12,7.1,6.87c0.01,1.2-0.6,1.95-1.64,2.01c-1.04,0.06-1.76-0.62-1.91-1.78
			c-0.28-2.25-1.61-3.55-3.62-3.52c-1.95,0.03-3.27,1.36-3.51,3.53c-0.13,1.16-0.85,1.83-1.9,1.76c-1.02-0.06-1.66-0.85-1.65-2.02
			C198.32,322.35,201.58,319.22,205.42,319.23z"/>
	</g>
	<path class="st0" d="M294.04,332.01c-1.45-5.11-3.76-10.51-6.34-14.81c-5.98-9.96-13.23-23.24-13.3-23.38
		c-0.12-0.22-0.29-0.41-0.5-0.57l-10.7-7.81c-0.52-0.38-1.2-0.44-1.78-0.15l-9.44,4.7c-0.81,0.41-1.17,1.38-0.81,2.21l2.04,4.78
		c-1.23,0.59-1.99,1.82-1.92,3.23c0.08,1.6,1.18,2.88,2.76,3.19c0.96,0.19,2.02,0.31,3.04,0.43c1.92,0.22,4.1,0.47,5.19,1.15
		c1.21,0.76,2.66,1.08,4.11,1.15c2.85,2.75,3.87,7.55,3.48,10.12c-0.17,1.18-0.51,2.77-0.85,4.45c-0.26,1.26-0.55,2.62-0.81,4.01
		c-5.62-3.26-12.68-3.24-18.34,0.23l-1.83,1.12c-0.15-0.09-0.31-0.19-0.47-0.29c-1.85-1.16-3.83-2.05-5.88-2.66
		c-1.23-0.37-2.49-0.65-3.76-0.82c-2.53-0.34-5.12-0.29-7.68,0.19c-0.25,0.04-0.53,0.12-0.89,0.23c-6.1,1.91-10.41,7.51-10.71,13.95
		l-0.13,2.96c-0.25,5.31,2.28,10.32,6.49,13.3c0.87,0.61,1.8,1.13,2.81,1.56c0.01,0.01,0.02,0.01,0.03,0.01
		c4.18,1.76,8.75,2.11,13.05,1.11c1.04-0.25,2.07-0.57,3.07-0.97c0.88-0.35,1.74-0.77,2.57-1.24c2.64,1.48,6.94,3.09,13.42,3.43
		c8.82,0.45,19.36-1.57,31.31-6.02c0.04-0.02,0.09-0.04,0.13-0.06c1.76-0.83,3-2.36,3.67-4.55c0.4-1.32,0.57-2.81,0.57-4.35
		C295.63,338.49,294.85,334.85,294.04,332.01z M291.78,345.2c-0.37,1.21-0.95,2-1.79,2.42c-22.69,8.43-34.86,5.98-40.37,3.49
		c0.43-0.35,0.88-0.68,1.32-0.99c0.78-0.55,0.96-1.62,0.43-2.4c-0.42-0.59-1.14-0.84-1.8-0.68c-0.21,0.04-0.41,0.13-0.59,0.26
		c-0.78,0.55-1.54,1.14-2.27,1.76c-0.82,0.69-1.22,0.97-1.38,1.07c-4.84,2.98-10.89,3.42-16.16,1.19c-0.76-0.32-1.47-0.72-2.13-1.18
		c-3.29-2.3-5.28-6.22-5.08-10.36l0.14-2.96c0.23-5,3.57-9.36,8.3-10.83c0.3-0.09,0.44-0.12,0.49-0.13
		c2.77-0.51,5.58-0.45,8.28,0.14c1.14,0.25,2.26,0.6,3.35,1.04c1.12,0.45,2.21,1,3.25,1.65c1.84,1.14,3.57,2.19,5.17,3.09
		c0.83,0.47,1.87,0.17,2.34-0.65c0.15-0.27,0.23-0.55,0.23-0.85c0-0.6-0.31-1.18-0.87-1.49c-0.41-0.23-0.83-0.48-1.26-0.73
		l0.31-0.19c4.96-3.04,11.24-2.79,15.93,0.53c-0.27,1.94-0.44,3.83-0.39,5.52c0.02,0.94,0.81,1.69,1.76,1.67
		c0.94-0.03,1.7-0.82,1.67-1.76c-0.1-3.55,0.92-8.47,1.74-12.43c0.37-1.8,0.7-3.35,0.89-4.63c0.07-0.49,0.11-1.03,0.11-1.62
		c0-2.71-0.82-6.37-2.83-9.36c1.28-0.25,2.22-0.55,2.47-0.63c0.72-0.24,1.18-0.9,1.18-1.62c0-0.18-0.03-0.37-0.09-0.55
		c-0.29-0.9-1.26-1.38-2.17-1.08c-0.01,0-1.43,0.47-3.17,0.69c-2.05,0.26-3.71,0.08-4.67-0.52c-1.74-1.09-4.22-1.38-6.61-1.66
		c-0.96-0.11-1.86-0.22-2.68-0.37c4.63-1.32,10.39-0.11,10.45-0.1c0.92,0.2,1.84-0.39,2.04-1.31c0.2-0.92-0.39-1.84-1.31-2.04
		c-0.09-0.02-0.79-0.17-1.87-0.31l-2.48-3.25c-0.58-0.75-1.66-0.9-2.41-0.32c-0.75,0.57-0.9,1.65-0.33,2.4l0.68,0.89
		c-0.95,0.01-1.96,0.07-2.96,0.2l-1.65-3.85l7.05-3.52l9.56,6.97c1.17,2.15,7.71,14.04,13.18,23.16
		C289.56,326.98,293.53,339.43,291.78,345.2z"/>
</g>
</svg>
