<svg xmlns="http://www.w3.org/2000/svg" xmlns:xlink="http://www.w3.org/1999/xlink" version="1.1" xml:space="preserve" viewBox="90.98 185.18 817.32 637.98">
<desc>Created with Fabric.js 3.5.0</desc>
<defs>
</defs>
<g transform="matrix(1 0 0 1 477.1546 434.3308)" id="894928">transform
<g style="" vector-effect="non-scaling-stroke">
		<g transform="matrix(0.9091 0 0 0.9091 -386.245 -343.4212)">
</g>
		<g transform="matrix(2.0189 0 0 2.0189 -139.1295 15.8047)" id="Layer_1">
<path style="stroke: none; stroke-width: 1; stroke-dasharray: none; stroke-linecap: butt; stroke-dashoffset: 0; stroke-linejoin: miter; stroke-miterlimit: 4; is-custom-font: none; font-file-url: none; fill: #ffffff; fill-rule: nonzero; opacity: 1;" transform=" translate(-247.0906, -217.81)" d="M 329.93 258.81 c -0.06 -2.64 0.54 -5.58 -2.81 -7.05 c -0.63 -0.27 -1.01 -1.36 -1.29 -2.15 c -0.86 -2.46 -2.78 -3.5 -5.07 -4.22 c -1.89 -0.57 -2.71 -0.09 -3.16 1.95 c -0.57 2.63 -1.61 5.15 -2.47 7.73 c -0.27 0 -0.54 0.02 -0.81 0.02 c -0.93 -2.17 -2.12 -4.07 -4.65 -2.5 c -2.75 1.71 -5.42 1.74 -8.15 0.25 c -2.6 -1.43 -4.88 -1 -6.64 1.2 c -1.79 2.24 -3.81 2.46 -6.38 1.76 c -4.18 -1.14 -4.18 -1.04 -5.96 2.76 c -0.25 0.55 -0.74 1.01 -1.58 2.14 c -2.05 -4.12 -4.22 -7.64 -5.58 -11.44 c -1.98 -5.5 -1.73 -5.64 -7.7 -6.07 c -2.37 -0.17 -3.31 -1.11 -2.66 -3.49 c 1.33 -4.8 0.02 -8.66 -3.55 -12.23 c -3.52 -3.53 -6.62 -7.46 -5.42 -13.18 c 0.24 -1.06 -0.76 -2.37 -1.18 -3.58 c -1.19 0.48 -2.4 0.91 -3.54 1.44 c -0.41 0.19 -0.74 0.62 -1.01 1.02 c -2.25 3.34 -5.75 4.51 -8.6 5.42 c -2.14 -1.19 -3.73 -2.09 -5.18 -2.92 c -0.1 -1.84 -0.02 -3.66 -0.31 -5.42 c -0.3 -1.83 0.07 -2.82 2.05 -3.32 c 0.77 -0.21 1.72 -1.54 1.79 -2.41 c 0.09 -1.46 -0.18 -3.11 -0.78 -4.45 c -2.45 -5.41 -2.15 -10.44 0.84 -15.63 c 1.98 -3.43 1.81 -7.25 0.22 -11.1 c -0.66 0.3 -1.03 0.4 -1.31 0.6 c -3.41 2.35 -3.82 2.25 -6.73 -0.65 c -1.19 -1.2 -2.57 -2.3 -4.04 -3.12 c -1.59 -0.89 -2.46 -1.81 -2.4 -3.79 c 0.08 -2.71 -0.6 -5.37 -3.58 -6.21 c -3.2 -0.92 -4.8 -2.75 -4.91 -6.1 c -0.06 -2.21 -1.08 -3.54 -3.56 -4.05 c -5.18 -1.05 -7.31 -3.88 -6.88 -9.08 c 0.29 -3.52 -0.63 -6.4 -2.96 -8.95 c -1.48 -1.63 -3.04 -3.23 -4.25 -5.05 c -0.85 -1.29 -1.68 -2.95 -1.66 -4.42 c 0.05 -5.85 0.71 -11.68 0.63 -17.51 c -0.08 -6.08 -0.77 -12.15 -1.22 -18.44 h -26.87 v 3.09 c -0.2 17.82 -0.31 35.66 -0.63 53.5 c -0.16 9.01 -0.27 18.06 -1.17 27.01 c -0.65 6.31 -0.08 12.17 2.29 17.97 c 0.32 0.76 0.5 1.68 0.45 2.5 c -0.4 6.91 1.77 12.4 7.57 16.63 c 4.31 3.14 4.66 6.83 2.27 11.47 c -1.1 2.13 -1.91 4.41 -2.92 6.56 c -1.03 2.19 -1.95 4.49 -3.31 6.47 c -1.46 2.1 -2.87 3.94 -2.14 6.79 c 0.22 0.84 -0.62 2.13 -1.25 3 c -2.55 3.58 -5.4 6.97 -7.81 10.64 c -3.41 5.23 -1.79 9.76 3.98 12.08 c 2.66 1.06 3.26 2.41 2.34 5.19 c -0.36 1.1 -1.22 2.36 -0.92 3.24 c 0.92 2.66 -0.2 4.84 -0.97 7.2 c -0.52 1.62 -0.96 3.33 -1.02 5.01 c -0.08 1.84 -0.15 3.68 -0.23 5.51 c 1 0.24 2 0.56 2.98 0.97 c 0.1 0.04 0.2 0.08 0.3 0.11 c 0.09 -2.37 0.18 -4.74 0.27 -7.1 c 0.02 -0.47 -0.05 -1.03 0.18 -1.41 c 2.56 -4.35 1.82 -9.42 2.96 -14.08 c 0.87 -3.57 -0.87 -6.24 -4.69 -7.76 c -3.64 -1.46 -4.55 -3.87 -2.35 -7.12 c 2.63 -3.88 5.69 -7.48 8.24 -11.4 c 0.92 -1.43 0.87 -3.49 1.32 -5.23 c 0.25 -0.95 0.39 -2.05 0.96 -2.77 c 2.14 -2.71 4.19 -5.33 4.69 -9 c 0.29 -2.09 1.45 -4.23 2.73 -5.98 c 2.71 -3.67 2.07 -7.24 -0.02 -10.71 c -1.12 -1.85 -2.52 -3.74 -4.26 -4.95 c -4.12 -2.9 -5.16 -6.96 -5.67 -11.62 c -0.44 -4.02 -1.82 -7.94 -2.39 -11.94 c -0.43 -3 -0.38 -6.07 -0.27 -9.1 c 0.41 -11.5 1.12 -22.99 1.38 -34.49 c 0.3 -14.48 0.25 -28.96 0.36 -43.44 v -3.45 h 20.71 c 0.25 5.4 0.68 10.6 0.68 15.81 c 0.01 5.75 -0.54 11.5 -0.43 17.24 c 0.03 1.94 1.13 3.97 2.08 5.78 c 0.69 1.33 1.87 2.42 2.96 3.5 c 2.83 2.77 4.15 5.88 3.67 10.03 c -0.68 5.91 2.02 7.44 8.64 10.88 c 0.9 0.48 1.96 1.57 2.04 2.46 c 0.35 3.72 2.19 6.1 5.67 7.11 c 2.03 0.6 2.79 1.86 2.67 3.84 c -0.21 3.05 1.2 5.05 3.92 6.36 c 1.1 0.53 2.13 1.3 2.98 2.16 c 3.69 3.69 3.77 3.77 8.73 3.99 c -0.33 1.32 -0.36 2.74 -1 3.8 c -3.66 5.99 -3.85 12.08 -0.96 18.38 c 0.19 0.43 0.33 0.9 0.44 1.36 c 0.07 0.27 0 0.56 0 1.08 c -3.64 1.33 -4.62 4.03 -3.55 7.75 c 0.24 0.87 0.11 1.92 -0.09 2.83 c -0.52 2.37 0.39 3.9 2.49 4.88 c 0.41 0.19 1.07 0.27 1.23 0.59 c 1.9 3.85 4.74 2.79 7.53 1.44 c 2.77 -1.36 5.45 -2.9 8.19 -4.35 c -0.27 5.32 3.15 9.39 6.78 13.13 c 2.58 2.64 3.32 5.37 2.61 8.84 c -1.08 5.2 0.65 7.45 5.91 7.59 c 2.41 0.06 3.46 0.82 4.36 3.34 c 1.49 4.17 3.77 8.13 6.1 11.93 c 1.63 2.68 4.85 2.35 6.6 -0.32 c 0.53 -0.79 0.91 -1.66 1.41 -2.59 c 1 0.2 1.92 0.41 2.84 0.6 c 3.06 0.6 5.59 -0.16 7.81 -2.47 c 0.68 -0.7 2.3 -1.35 3.03 -1.02 c 3.51 1.67 6.95 1.84 10.41 0.26 c 2.89 3.53 4.97 3.56 7.49 -0.12 c 1.38 -2.01 2.26 -4.34 3.52 -6.82 c 0.36 0.39 0.9 0.84 1.26 1.39 c 0.46 0.73 0.57 1.81 1.19 2.27 c 3.47 2.59 2.89 6.33 2.96 9.9 c 0.59 26.38 1.19 52.74 1.79 79.1 c 0.02 1.05 0 2.08 0 3.52 c -2.89 0.1 -5.78 0.19 -8.67 0.26 c -0.1 1.18 -0.3 2.32 -0.61 3.38 c 4.21 -0.12 8.42 -0.26 12.63 -0.41 c 0.05 -0.85 0.12 -1.33 0.11 -1.81 C 331.31 317.49 330.63 288.15 329.93 258.81 z" stroke-linecap="round"/>
</g>
		<g transform="matrix(2.0189 0 0 2.0189 -156.4675 -210.8674)" id="Layer_1">
<path style="stroke: none; stroke-width: 1; stroke-dasharray: none; stroke-linecap: butt; stroke-dashoffset: 0; stroke-linejoin: miter; stroke-miterlimit: 4; is-custom-font: none; font-file-url: none; fill: #ffffff; fill-rule: nonzero; opacity: 1;" transform=" translate(-238.505, -105.535)" d="M 225.2 88.04 h 13.37 c 2.32 0 3.73 0.32 4.98 0.88 c 3.27 1.46 5.39 4.61 5.39 8.49 c 0 2.68 -1.2 5.03 -3.25 6.59 c 3.66 1.44 6.12 4.78 6.12 8.91 c 0 4.2 -2.34 7.64 -5.88 9.17 c -1.32 0.61 -2.81 0.95 -5.27 0.95 H 225.2 V 88.04 z M 238.16 102.71 c 1.61 0 2.46 -0.17 3.25 -0.49 c 1.95 -0.81 3.32 -2.56 3.32 -4.88 s -1.37 -4.03 -3.32 -4.86 c -0.76 -0.34 -1.61 -0.49 -3.27 -0.49 h -8.56 v 10.71 H 238.16 z M 240.04 119.01 c 1.83 0 2.78 -0.2 3.64 -0.54 c 2.24 -0.9 3.83 -2.95 3.83 -5.69 c 0 -2.68 -1.59 -4.76 -3.83 -5.69 c -0.85 -0.34 -1.81 -0.51 -3.64 -0.51 h -10.47 v 12.42 H 240.04 z" stroke-linecap="round"/>
</g>
		<g transform="matrix(2.0189 0 0 2.0189 -90.4215 -210.8574)" id="Layer_1">
<path style="stroke: none; stroke-width: 1; stroke-dasharray: none; stroke-linecap: butt; stroke-dashoffset: 0; stroke-linejoin: miter; stroke-miterlimit: 4; is-custom-font: none; font-file-url: none; fill: #ffffff; fill-rule: nonzero; opacity: 1;" transform=" translate(-271.22, -105.54)" d="M 257.31 123.03 V 88.04 h 15.57 c 2.44 0 3.95 0.37 5.27 1.02 c 3.25 1.49 5.37 4.68 5.37 8.64 c 0 2.15 -0.63 4.1 -1.78 5.69 c -1.07 1.49 -2.51 2.56 -4.2 3.2 c -0.66 0.24 -1.37 0.44 -2.17 0.59 l 9.76 15.86 h -5.08 l -9.44 -15.69 h -8.95 v 15.69 H 257.31 z M 272.42 103.32 c 1.71 0 2.59 -0.17 3.39 -0.51 c 1.98 -0.83 3.42 -2.64 3.42 -5.08 c 0 -2.39 -1.42 -4.22 -3.42 -5.07 c -0.81 -0.34 -1.68 -0.51 -3.39 -0.51 h -10.76 v 11.17 H 272.42 z" stroke-linecap="round"/>
</g>
		<g transform="matrix(2.0189 0 0 2.0189 -25.4149 -210.8674)" id="Layer_1">
<path style="stroke: none; stroke-width: 1; stroke-dasharray: none; stroke-linecap: butt; stroke-dashoffset: 0; stroke-linejoin: miter; stroke-miterlimit: 4; is-custom-font: none; font-file-url: none; fill: #ffffff; fill-rule: nonzero; opacity: 1;" transform=" translate(-303.42, -105.535)" d="M 312.36 115.86 h -17.88 l -2.88 7.17 h -4.61 l 14.32 -34.99 h 4.27 l 14.27 34.99 h -4.59 L 312.36 115.86 z M 296.09 111.81 h 14.66 l -7.3 -18.37 L 296.09 111.81 z" stroke-linecap="round"/>
</g>
		<g transform="matrix(2.0189 0 0 2.0189 20.1996 -210.8878)" id="Layer_1">
<path style="stroke: none; stroke-width: 1; stroke-dasharray: none; stroke-linecap: butt; stroke-dashoffset: 0; stroke-linejoin: miter; stroke-miterlimit: 4; is-custom-font: none; font-file-url: none; fill: #ffffff; fill-rule: nonzero; opacity: 1;" transform=" translate(-326.015, -105.525)" d="M 323.83 88.02 h 4.37 v 35.01 h -4.37 V 88.02 z" stroke-linecap="round"/>
</g>
		<g transform="matrix(2.0189 0 0 2.0189 68.824 -210.8776)" id="Layer_1">
<path style="stroke: none; stroke-width: 1; stroke-dasharray: none; stroke-linecap: butt; stroke-dashoffset: 0; stroke-linejoin: miter; stroke-miterlimit: 4; is-custom-font: none; font-file-url: none; fill: #ffffff; fill-rule: nonzero; opacity: 1;" transform=" translate(-350.1, -105.53)" d="M 335.23 123.03 V 88.02 h 2.32 l 23.08 26.74 V 88.02 h 4.34 v 35.01 h -2.29 L 339.6 96.27 v 26.77 H 335.23 z" stroke-linecap="round"/>
</g>
		<g transform="matrix(2.0189 0 0 2.0189 172.2793 -210.8676)" id="Layer_1">
<path style="stroke: none; stroke-width: 1; stroke-dasharray: none; stroke-linecap: butt; stroke-dashoffset: 0; stroke-linejoin: miter; stroke-miterlimit: 4; is-custom-font: none; font-file-url: none; fill: #ffffff; fill-rule: nonzero; opacity: 1;" transform=" translate(-401.345, -105.535)" d="M 410.87 95.88 c -2.39 -2.37 -5.66 -3.78 -9.44 -3.78 c -7.71 0 -13.35 5.78 -13.35 13.42 c 0 7.56 5.59 13.4 13.35 13.4 c 7.3 0 12.91 -5.29 13.18 -12.96 h -13.66 v -4.1 h 17.66 c 0.27 1.17 0.39 2.42 0.39 3.66 c 0 9.93 -7.59 17.52 -17.57 17.52 c -9.93 0 -17.74 -7.49 -17.74 -17.52 c 0 -9.88 7.66 -17.49 17.74 -17.49 c 4.78 0 9 1.68 12.13 4.61 L 410.87 95.88 z" stroke-linecap="round"/>
</g>
		<g transform="matrix(2.0189 0 0 2.0189 242.6255 -210.8674)" id="Layer_1">
<path style="stroke: none; stroke-width: 1; stroke-dasharray: none; stroke-linecap: butt; stroke-dashoffset: 0; stroke-linejoin: miter; stroke-miterlimit: 4; is-custom-font: none; font-file-url: none; fill: #ffffff; fill-rule: nonzero; opacity: 1;" transform=" translate(-436.19, -105.535)" d="M 445.13 115.86 h -17.88 l -2.88 7.17 h -4.61 l 14.32 -34.99 h 4.27 l 14.27 34.99 h -4.59 L 445.13 115.86 z M 428.85 111.81 h 14.66 l -7.29 -18.37 L 428.85 111.81 z" stroke-linecap="round"/>
</g>
		<g transform="matrix(2.0189 0 0 2.0189 288.24 -210.8878)" id="Layer_1">
<path style="stroke: none; stroke-width: 1; stroke-dasharray: none; stroke-linecap: butt; stroke-dashoffset: 0; stroke-linejoin: miter; stroke-miterlimit: 4; is-custom-font: none; font-file-url: none; fill: #ffffff; fill-rule: nonzero; opacity: 1;" transform=" translate(-458.785, -105.525)" d="M 456.6 88.02 h 4.37 v 35.01 h -4.37 V 88.02 z" stroke-linecap="round"/>
</g>
		<g transform="matrix(2.0189 0 0 2.0189 336.8644 -210.8878)" id="Layer_1">
<path style="stroke: none; stroke-width: 1; stroke-dasharray: none; stroke-linecap: butt; stroke-dashoffset: 0; stroke-linejoin: miter; stroke-miterlimit: 4; is-custom-font: none; font-file-url: none; fill: #ffffff; fill-rule: nonzero; opacity: 1;" transform=" translate(-482.87, -105.525)" d="M 468 123.03 V 88.02 h 2.32 l 23.08 26.74 V 88.02 h 4.34 v 35.01 h -2.29 l -23.08 -26.77 v 26.77 H 468 z" stroke-linecap="round"/>
</g>
		<g transform="matrix(2.0189 0 0 2.0189 404.1825 -210.8878)" id="Layer_1">
<path style="stroke: none; stroke-width: 1; stroke-dasharray: none; stroke-linecap: butt; stroke-dashoffset: 0; stroke-linejoin: miter; stroke-miterlimit: 4; is-custom-font: none; font-file-url: none; fill: #ffffff; fill-rule: nonzero; opacity: 1;" transform=" translate(-516.215, -105.525)" d="M 505.67 113.52 c 3.15 3.44 7.27 5.39 11.37 5.42 c 4.98 0 8.22 -2.85 8.22 -6.42 c 0 -4.39 -4.95 -5.39 -10.2 -6.49 c -5.68 -1.17 -11.37 -2.76 -11.37 -8.76 c 0 -5.15 4.29 -9.22 11.52 -9.25 c 4.22 0 8.76 1.71 12.2 5.05 l -2.71 3.03 c -2.46 -2.51 -6 -4.03 -9.56 -4.03 c -4.37 0 -7.17 2.15 -7.17 4.98 c 0 3.25 3.54 4.05 9.13 5.1 c 5.1 0.98 12.47 2.66 12.47 10.44 c 0 5.88 -5.15 10.44 -12.49 10.44 c -4.78 0 -9.96 -2.02 -14.22 -6.47 L 505.67 113.52 z" stroke-linecap="round"/>
</g>
		<g transform="matrix(2.0189 0 0 2.0189 -101.434 -106.8371)" id="Layer_1">
<path style="stroke: none; stroke-width: 1; stroke-dasharray: none; stroke-linecap: butt; stroke-dashoffset: 0; stroke-linejoin: miter; stroke-miterlimit: 4; is-custom-font: none; font-file-url: none; fill: #ffffff; fill-rule: nonzero; opacity: 1;" transform=" translate(-265.765, -157.065)" d="M 280.16 139.56 v 4.1 h -12.22 v 30.91 h -4.37 v -30.91 h -12.2 v -4.1 H 280.16 z" stroke-linecap="round"/>
</g>
		<g transform="matrix(2.0189 0 0 2.0189 -34.4896 -106.8371)" id="Layer_1">
<path style="stroke: none; stroke-width: 1; stroke-dasharray: none; stroke-linecap: butt; stroke-dashoffset: 0; stroke-linejoin: miter; stroke-miterlimit: 4; is-custom-font: none; font-file-url: none; fill: #ffffff; fill-rule: nonzero; opacity: 1;" transform=" translate(-298.925, -157.065)" d="M 289.37 139.56 v 20.2 c 0 1.98 0.2 3.17 0.56 4.27 c 1.24 3.78 4.56 6.44 8.95 6.44 c 4.46 0 7.78 -2.66 9.03 -6.44 c 0.37 -1.1 0.54 -2.29 0.54 -4.27 v -20.2 h 4.37 v 20.2 c 0 2.54 -0.34 4.25 -0.93 5.81 c -1.85 5.32 -6.66 9 -12.98 9 s -11.13 -3.68 -13 -9 c -0.56 -1.56 -0.88 -3.27 -0.88 -5.81 v -20.2 H 289.37 z" stroke-linecap="round"/>
</g>
		<g transform="matrix(2.0189 0 0 2.0189 32.4145 -106.8371)" id="Layer_1">
<path style="stroke: none; stroke-width: 1; stroke-dasharray: none; stroke-linecap: butt; stroke-dashoffset: 0; stroke-linejoin: miter; stroke-miterlimit: 4; is-custom-font: none; font-file-url: none; fill: #ffffff; fill-rule: nonzero; opacity: 1;" transform=" translate(-332.065, -157.065)" d="M 346.46 139.56 v 4.1 h -12.22 v 30.91 h -4.37 v -30.91 h -12.2 v -4.1 H 346.46 z" stroke-linecap="round"/>
</g>
		<g transform="matrix(2.0189 0 0 2.0189 100.6008 -106.8371)" id="Layer_1">
<path style="stroke: none; stroke-width: 1; stroke-dasharray: none; stroke-linecap: butt; stroke-dashoffset: 0; stroke-linejoin: miter; stroke-miterlimit: 4; is-custom-font: none; font-file-url: none; fill: #ffffff; fill-rule: nonzero; opacity: 1;" transform=" translate(-365.84, -157.065)" d="M 365.84 174.57 c -10.13 0 -17.74 -7.59 -17.74 -17.52 c 0 -9.88 7.61 -17.49 17.74 -17.49 c 10.15 0 17.74 7.61 17.74 17.49 C 383.58 166.98 375.99 174.57 365.84 174.57 z M 365.84 143.68 c -7.76 0 -13.32 5.76 -13.32 13.37 c 0 7.64 5.56 13.4 13.32 13.4 s 13.32 -5.76 13.32 -13.4 C 379.16 149.44 373.6 143.68 365.84 143.68 z" stroke-linecap="round"/>
</g>
		<g transform="matrix(2.0189 0 0 2.0189 175.2366 -106.8068)" id="Layer_1">
<path style="stroke: none; stroke-width: 1; stroke-dasharray: none; stroke-linecap: butt; stroke-dashoffset: 0; stroke-linejoin: miter; stroke-miterlimit: 4; is-custom-font: none; font-file-url: none; fill: #ffffff; fill-rule: nonzero; opacity: 1;" transform=" translate(-402.81, -157.08)" d="M 388.9 174.57 v -34.99 h 15.57 c 2.44 0 3.95 0.37 5.27 1.02 c 3.25 1.49 5.37 4.68 5.37 8.64 c 0 2.15 -0.63 4.1 -1.78 5.69 c -1.07 1.49 -2.51 2.56 -4.2 3.2 c -0.66 0.24 -1.37 0.44 -2.17 0.59 l 9.76 15.86 h -5.08 l -9.44 -15.69 h -8.95 v 15.69 H 388.9 z M 404 154.86 c 1.71 0 2.59 -0.17 3.39 -0.51 c 1.98 -0.83 3.42 -2.64 3.42 -5.08 c 0 -2.39 -1.42 -4.22 -3.42 -5.07 c -0.81 -0.34 -1.68 -0.51 -3.39 -0.51 h -10.76 v 11.17 H 404 z" stroke-linecap="round"/>
</g>
		<g transform="matrix(2.0189 0 0 2.0189 217.6213 -106.8371)" id="Layer_1">
<path style="stroke: none; stroke-width: 1; stroke-dasharray: none; stroke-linecap: butt; stroke-dashoffset: 0; stroke-linejoin: miter; stroke-miterlimit: 4; is-custom-font: none; font-file-url: none; fill: #ffffff; fill-rule: nonzero; opacity: 1;" transform=" translate(-423.805, -157.065)" d="M 421.62 139.56 h 4.37 v 35.01 h -4.37 V 139.56 z" stroke-linecap="round"/>
</g>
		<g transform="matrix(2.0189 0 0 2.0189 266.2456 -106.8371)" id="Layer_1">
<path style="stroke: none; stroke-width: 1; stroke-dasharray: none; stroke-linecap: butt; stroke-dashoffset: 0; stroke-linejoin: miter; stroke-miterlimit: 4; is-custom-font: none; font-file-url: none; fill: #ffffff; fill-rule: nonzero; opacity: 1;" transform=" translate(-447.89, -157.065)" d="M 433.02 174.57 v -35.01 h 2.32 l 23.08 26.74 v -26.74 h 4.34 v 35.01 h -2.29 l -23.08 -26.77 v 26.77 H 433.02 z" stroke-linecap="round"/>
</g>
		<g transform="matrix(2.0189 0 0 2.0189 342.6485 -106.8371)" id="Layer_1">
<path style="stroke: none; stroke-width: 1; stroke-dasharray: none; stroke-linecap: butt; stroke-dashoffset: 0; stroke-linejoin: miter; stroke-miterlimit: 4; is-custom-font: none; font-file-url: none; fill: #ffffff; fill-rule: nonzero; opacity: 1;" transform=" translate(-485.735, -157.065)" d="M 495.26 147.41 c -2.39 -2.37 -5.66 -3.78 -9.44 -3.78 c -7.71 0 -13.35 5.78 -13.35 13.42 c 0 7.56 5.59 13.4 13.35 13.4 c 7.3 0 12.91 -5.29 13.18 -12.96 h -13.66 v -4.1 H 503 c 0.27 1.17 0.39 2.42 0.39 3.66 c 0 9.93 -7.59 17.52 -17.57 17.52 c -9.93 0 -17.74 -7.49 -17.74 -17.52 c 0 -9.88 7.66 -17.49 17.74 -17.49 c 4.78 0 9 1.68 12.13 4.61 L 495.26 147.41 z" stroke-linecap="round"/>
</g>
		<g transform="matrix(2.0189 0 0 2.0189 10.2571 -15.6164)" id="Layer_1">
<path style="stroke: none; stroke-width: 1; stroke-dasharray: none; stroke-linecap: butt; stroke-dashoffset: 0; stroke-linejoin: miter; stroke-miterlimit: 4; is-custom-font: none; font-file-url: none; fill: #ffffff; fill-rule: nonzero; opacity: 1;" transform=" translate(-321.09, -202.25)" d="M 319.89 218.08 v -31.66 h 2.4 v 31.66 H 319.89 z" stroke-linecap="round"/>
</g>
		<g transform="matrix(2.0189 0 0 2.0189 48.1411 -15.2632)" id="Layer_1">
<path style="stroke: none; stroke-width: 1; stroke-dasharray: none; stroke-linecap: butt; stroke-dashoffset: 0; stroke-linejoin: miter; stroke-miterlimit: 4; is-custom-font: none; font-file-url: none; fill: #ffffff; fill-rule: nonzero; opacity: 1;" transform=" translate(-339.855, -202.425)" d="M 351.19 186.42 v 31.66 h -2.17 v -4.93 c -0.9 1.66 -2.2 2.95 -3.89 3.89 c -1.69 0.93 -3.5 1.4 -5.43 1.4 c -3.23 0 -5.89 -1.03 -8.01 -3.08 c -2.11 -2.05 -3.17 -4.87 -3.17 -8.46 c 0 -3.59 1.06 -6.41 3.19 -8.46 c 2.13 -2.05 4.8 -3.08 8.03 -3.08 c 2.02 0 3.85 0.44 5.49 1.31 c 1.64 0.87 2.9 2.19 3.78 3.94 v -14.2 H 351.19 z M 333.28 199.94 c -1.72 1.63 -2.58 3.95 -2.58 6.97 c 0 2.98 0.87 5.29 2.6 6.92 c 1.73 1.63 3.91 2.44 6.54 2.44 c 2.65 0 4.84 -0.87 6.56 -2.62 c 1.72 -1.75 2.58 -4.01 2.58 -6.78 c 0 -2.74 -0.87 -4.99 -2.6 -6.74 c -1.73 -1.75 -3.91 -2.62 -6.54 -2.62 C 337.19 197.5 335 198.32 333.28 199.94 z" stroke-linecap="round"/>
</g>
		<g transform="matrix(2.0189 0 0 2.0189 105.7182 -6.128)" id="Layer_1">
<path style="stroke: none; stroke-width: 1; stroke-dasharray: none; stroke-linecap: butt; stroke-dashoffset: 0; stroke-linejoin: miter; stroke-miterlimit: 4; is-custom-font: none; font-file-url: none; fill: #ffffff; fill-rule: nonzero; opacity: 1;" transform=" translate(-368.375, -206.95)" d="M 379.73 195.74 v 22.34 h -2.22 v -4.75 c -2.11 3.41 -5.16 5.11 -9.14 5.11 c -3.17 0 -5.85 -1.09 -8.05 -3.26 s -3.3 -4.93 -3.3 -8.28 c 0 -3.35 1.09 -6.09 3.28 -8.23 c 2.19 -2.14 4.88 -3.21 8.07 -3.21 c 1.9 0 3.67 0.44 5.31 1.31 c 1.64 0.87 2.92 2.16 3.82 3.84 v -4.88 H 379.73 z M 361.87 200.19 c -1.75 1.73 -2.62 3.97 -2.62 6.72 c 0 2.74 0.88 4.99 2.62 6.74 c 1.75 1.75 3.92 2.62 6.51 2.62 c 1.72 0 3.24 -0.35 4.57 -1.04 c 1.33 -0.69 2.34 -1.58 3.03 -2.67 s 1.21 -2.29 1.54 -3.62 c 0.33 -1.33 0.33 -2.66 0 -4 c -0.33 -1.34 -0.84 -2.56 -1.54 -3.64 s -1.7 -1.98 -3.03 -2.67 s -2.85 -1.04 -4.57 -1.04 C 365.79 197.59 363.61 198.46 361.87 200.19 z" stroke-linecap="round"/>
</g>
		<g transform="matrix(2.0189 0 0 2.0189 163.1638 -15.6264)" id="Layer_1">
<path style="stroke: none; stroke-width: 1; stroke-dasharray: none; stroke-linecap: butt; stroke-dashoffset: 0; stroke-linejoin: miter; stroke-miterlimit: 4; is-custom-font: none; font-file-url: none; fill: #ffffff; fill-rule: nonzero; opacity: 1;" transform=" translate(-396.83, -202.245)" d="M 389.19 186.42 v 13.48 c 1.66 -2.92 4.34 -4.42 8.05 -4.48 c 3.04 0 5.37 0.89 6.96 2.67 c 1.6 1.78 2.4 4.18 2.4 7.19 v 12.8 h -2.17 v -12.8 c 0 -2.41 -0.59 -4.3 -1.79 -5.68 c -1.19 -1.37 -2.99 -2.06 -5.4 -2.06 c -2.32 0 -4.23 0.79 -5.72 2.37 s -2.24 3.55 -2.24 5.9 v 12.26 h -2.22 v -31.66 H 389.19 z" stroke-linecap="round"/>
</g>
		<g transform="matrix(2.0189 0 0 2.0189 217.0365 -6.2088)" id="Layer_1">
<path style="stroke: none; stroke-width: 1; stroke-dasharray: none; stroke-linecap: butt; stroke-dashoffset: 0; stroke-linejoin: miter; stroke-miterlimit: 4; is-custom-font: none; font-file-url: none; fill: #ffffff; fill-rule: nonzero; opacity: 1;" transform=" translate(-423.515, -206.91)" d="M 415.42 215.32 c -2.17 -2.08 -3.26 -4.85 -3.26 -8.32 s 1.08 -6.27 3.26 -8.41 c 2.17 -2.14 4.87 -3.21 8.09 -3.21 c 3.23 0 5.92 1.07 8.1 3.21 c 2.17 2.14 3.26 4.94 3.26 8.41 s -1.09 6.24 -3.26 8.32 s -4.87 3.12 -8.1 3.12 C 420.29 218.44 417.59 217.4 415.42 215.32 z M 430.07 213.74 c 1.75 -1.69 2.62 -3.93 2.62 -6.74 c 0 -2.83 -0.88 -5.13 -2.65 -6.9 c -1.76 -1.76 -3.94 -2.65 -6.54 -2.65 c -2.59 0 -4.77 0.88 -6.54 2.65 c -1.76 1.76 -2.65 4.06 -2.65 6.9 c 0 2.8 0.87 5.05 2.62 6.74 s 3.93 2.53 6.56 2.53 C 426.14 216.27 428.32 215.43 430.07 213.74 z" stroke-linecap="round"/>
</g>
		<g transform="matrix(2.0189 0 0 2.0189 -258.409 274.6211)" id="Layer_1">
<path style="stroke: #ffffff; stroke-width: 1; stroke-dasharray: none; stroke-linecap: butt; stroke-dashoffset: 0; stroke-linejoin: miter; stroke-miterlimit: 10; is-custom-font: none; font-file-url: none; fill: #ffffff; fill-rule: nonzero; opacity: 1;" transform=" translate(-188.0081, -346.0138)" d="M 250.69 361.74 c -1.4 0.57 -2.83 1.02 -4.3 1.36 c 0.39 2.02 0.19 4.03 -0.41 6.04 c -0.74 2.5 -2.12 4.62 -3.93 6.46 c -8.86 8.91 -25.64 8.61 -34.15 -0.61 c -0.52 -0.57 -0.99 -1.2 -1.61 -1.96 c 9.06 -1.06 16.31 -4.87 21.82 -11.49 c -0.02 -0.01 -0.03 -0.01 -0.05 -0.02 c -1.41 -0.6 -2.73 -1.34 -3.94 -2.19 c -9.11 10.42 -25.13 12.44 -36.58 3.81 c -0.35 -0.26 -0.69 -0.55 -1.05 -0.8 c -1.13 -0.75 -2.41 -0.59 -3.17 0.41 c -0.77 1 -0.63 2.25 0.46 3.15 c 0.9 0.75 1.88 1.43 2.91 2.2 c -2.98 3.86 -6.8 6.28 -11.56 6.99 c -11.32 1.68 -20.94 -6.78 -20.86 -18.26 c 0 -0.31 0.02 -0.61 0 -0.92 c -0.1 -1.26 -1.03 -2.16 -2.21 -2.17 c -1.18 -0.01 -2.18 0.88 -2.24 2.14 c -0.08 1.17 -0.02 2.35 -0.02 3.51 c -6.36 1.01 -15.57 -5.44 -16.82 -11.8 c 0.71 0.38 1.33 0.75 1.99 1.08 c 1.37 0.69 2.68 0.36 3.3 -0.8 c 0.61 -1.17 0.16 -2.42 -1.22 -3.16 c -4.11 -2.2 -6.63 -5.55 -7.39 -10.17 c -1.11 -6.84 3.43 -13.55 10.19 -15.12 c 0.47 -0.1 0.95 -0.17 1.41 -0.3 c 1.22 -0.34 1.89 -1.39 1.66 -2.62 c -0.21 -1.15 -1.31 -1.98 -2.53 -1.78 c -1.16 0.18 -2.3 0.51 -3.62 0.79 c 0.46 -1.98 1.36 -3.6 2.56 -5.06 c 3.81 -4.59 9.99 -6.15 15.52 -3.94 c 0.32 0.12 0.64 0.31 0.97 0.41 c 1.15 0.32 2.25 -0.2 2.73 -1.27 c 0.46 -1.07 0.08 -2.21 -0.98 -2.83 c -0.37 -0.22 -0.79 -0.37 -1.2 -0.54 c -0.4 -0.16 -0.81 -0.3 -1.43 -0.52 c 0.38 -0.47 0.68 -0.87 1.02 -1.22 c 3.6 -3.69 8.82 -4.81 13.42 -3.45 c 1.09 0.32 2.14 0.77 3.12 1.36 c 1.27 0.77 2.43 1.77 3.43 2.98 c 0.28 0.34 0.52 0.71 0.83 1.03 c 0.91 0.95 2.11 1.06 3.07 0.3 c 0.94 -0.73 1.16 -2.01 0.41 -3.06 c -0.76 -1.06 -1.66 -2.02 -2.5 -3.03 c 3.21 -2.75 10.18 -3.21 14.4 -0.92 c -0.12 0.11 -0.23 0.24 -0.36 0.32 c -1.47 1.02 -1.88 2.26 -1.11 3.42 c 0.77 1.15 1.99 1.19 3.61 0.36 c 1.76 -0.9 3.54 -1.82 5.4 -2.37 c 10.41 -3.09 21.37 1.63 26.38 11.24 c 0.23 0.42 0.41 0.88 0.71 1.26 c 0.68 0.94 1.81 1.19 2.81 0.7 c 1.03 -0.54 1.52 -1.7 1.04 -2.81 c -0.46 -1.08 -1.06 -2.1 -1.74 -3.42 c 4.87 1.71 8.61 4.43 11.34 8.43 c 0.78 1.15 1.45 2.3 2 3.47 c 1.78 0.24 3.55 0.62 5.28 1.15 c -3.1 -9.8 -11.57 -17.1 -22.4 -18.53 c -0.66 -0.09 -1.35 -0.4 -1.87 -0.81 c -7.39 -5.79 -15.62 -7.53 -24.68 -5.1 c -0.86 0.24 -1.46 0.12 -2.2 -0.31 c -7.34 -4.21 -14.63 -4.07 -21.8 0.44 c -0.66 0.42 -1.17 0.55 -1.86 0.33 c -0.1 -0.03 -0.19 -0.07 -0.29 -0.11 c -0.94 -0.39 -1.89 -0.7 -2.84 -0.93 c -6.83 -1.61 -13.96 0.82 -18.28 6.6 c -1.06 1.41 -2.15 1.95 -3.84 2.1 c -8.03 0.74 -15.01 7.91 -15.6 15.95 c -0.07 0.9 -0.34 1.52 -1.02 2.13 c -5.77 5.2 -7.46 13.75 -4.22 20.78 c 0.37 0.81 0.58 1.73 0.66 2.62 c 0.73 9.04 5.21 15.49 13.33 19.4 c 3.18 1.54 6.61 2.07 10.16 1.95 c 2.37 6.9 6.87 11.74 13.65 14.31 c 6.81 2.59 13.35 1.76 19.65 -1.85 c 0.22 0.49 0.38 0.9 0.58 1.28 c 1.97 3.93 5.14 6.18 9.54 6.5 c 1.34 0.11 2.3 0.52 3.16 1.53 c 4.05 4.71 8.12 9.37 12.22 14.02 c 2.05 2.34 5.04 3.11 7.78 2.09 c 2.74 -1.02 4.46 -3.56 4.49 -6.68 c 0.02 -2.54 0 -5.1 0.01 -7.65 c 0 -0.37 0.05 -0.74 0.08 -1.16 c 0.83 0.06 1.54 0.1 2.23 0.12 c 6.66 0.2 12.8 -1.44 18.23 -5.38 C 249.05 376.35 252.15 369.09 250.69 361.74 z M 217.36 386.74 c -0.1 1.4 -0.03 2.81 -0.03 4.22 c 0 1.36 -0.02 2.72 0.01 4.09 c 0.02 1.2 -0.38 2.2 -1.57 2.64 c -1.22 0.46 -2.18 -0.02 -3.02 -0.98 c -4.07 -4.69 -8.17 -9.34 -12.21 -14.01 c -1.59 -1.85 -3.5 -2.8 -5.96 -2.85 c -3.21 -0.07 -5.79 -2.31 -6.38 -5.45 c -0.1 -0.51 0.17 -1.14 0.43 -1.62 c 1.22 -2.3 2.86 -2.45 5.2 -1.4 c 1.92 0.86 4.16 0.98 6.24 1.52 c 0.54 0.15 1.19 0.53 1.48 1.01 c 3.4 5.68 8.24 9.51 14.6 11.35 C 217.03 385.48 217.41 385.77 217.36 386.74 z" stroke-linecap="round"/>
</g>
		<g transform="matrix(2.0189 0 0 2.0189 -258.3765 270.2227)" id="Layer_1">
<path style="stroke: #ffffff; stroke-width: 1; stroke-dasharray: none; stroke-linecap: butt; stroke-dashoffset: 0; stroke-linejoin: miter; stroke-miterlimit: 10; is-custom-font: none; font-file-url: none; fill: #ffffff; fill-rule: nonzero; opacity: 1;" transform=" translate(-188.0256, -343.8366)" d="M 188.02 350.61 c -7.94 -0.37 -14.47 -3.47 -19.51 -9.59 c -1.06 -1.29 -0.98 -2.6 0.14 -3.47 c 1.05 -0.82 2.31 -0.6 3.33 0.63 c 3.61 4.34 8.18 7.04 13.8 7.68 c 7.18 0.81 13.04 -1.91 17.84 -7.15 c 0.21 -0.23 0.38 -0.48 0.59 -0.71 c 0.99 -1.07 2.28 -1.22 3.27 -0.37 c 1 0.85 1.1 2.12 0.16 3.28 C 202.57 347.14 195.96 350.27 188.02 350.61 z" stroke-linecap="round"/>
</g>
		<g transform="matrix(2.0189 0 0 2.0189 -285.6097 222.455)" id="Layer_1">
<path style="stroke: #ffffff; stroke-width: 1; stroke-dasharray: none; stroke-linecap: butt; stroke-dashoffset: 0; stroke-linejoin: miter; stroke-miterlimit: 10; is-custom-font: none; font-file-url: none; fill: #ffffff; fill-rule: nonzero; opacity: 1;" transform=" translate(-174.5364, -320.1754)" d="M 174.47 314.57 c 4.77 -0.02 8.7 3.63 9.04 8.38 c 0.11 1.55 -0.66 2.66 -1.95 2.81 c -1.4 0.17 -2.33 -0.7 -2.53 -2.36 c -0.31 -2.61 -2.05 -4.3 -4.47 -4.32 c -2.45 -0.02 -4.21 1.62 -4.52 4.22 c -0.2 1.69 -1.09 2.57 -2.48 2.47 c -1.38 -0.11 -2.09 -1.12 -2 -2.86 C 165.79 318.31 169.75 314.6 174.47 314.57 z" stroke-linecap="round"/>
</g>
		<g transform="matrix(2.0189 0 0 2.0189 -231.1449 222.4691)" id="Layer_1">
<path style="stroke: #ffffff; stroke-width: 1; stroke-dasharray: none; stroke-linecap: butt; stroke-dashoffset: 0; stroke-linejoin: miter; stroke-miterlimit: 10; is-custom-font: none; font-file-url: none; fill: #ffffff; fill-rule: nonzero; opacity: 1;" transform=" translate(-201.5149, -320.1826)" d="M 201.54 314.58 c 4.87 0.01 8.93 3.94 8.96 8.67 c 0.01 1.51 -0.76 2.46 -2.07 2.53 c -1.31 0.07 -2.23 -0.78 -2.41 -2.25 c -0.35 -2.84 -2.03 -4.48 -4.57 -4.44 c -2.46 0.03 -4.13 1.71 -4.44 4.46 c -0.16 1.47 -1.07 2.31 -2.4 2.23 c -1.29 -0.08 -2.1 -1.07 -2.08 -2.55 C 192.58 318.52 196.7 314.56 201.54 314.58 z" stroke-linecap="round"/>
</g>
		<g transform="matrix(2.0189 0 0 2.0189 -99.4539 215.6837)" id="Layer_1">
<path style="stroke: #ffffff; stroke-width: 1; stroke-dasharray: none; stroke-linecap: butt; stroke-dashoffset: 0; stroke-linejoin: miter; stroke-miterlimit: 10; is-custom-font: none; font-file-url: none; fill: #ffffff; fill-rule: nonzero; opacity: 1;" transform=" translate(-266.7446, -316.8202)" d="M 313.41 330.72 c -1.83 -6.45 -4.74 -13.27 -8.01 -18.7 c -7.54 -12.57 -16.69 -29.34 -16.79 -29.51 c -0.15 -0.28 -0.37 -0.52 -0.63 -0.72 l -13.51 -9.86 c -0.66 -0.48 -1.52 -0.55 -2.25 -0.19 l -11.91 5.94 c -1.02 0.52 -1.48 1.74 -1.02 2.79 l 2.58 6.04 c -1.56 0.74 -2.51 2.29 -2.42 4.08 c 0.1 2.02 1.49 3.64 3.48 4.02 c 1.21 0.24 2.55 0.4 3.84 0.55 c 2.42 0.28 5.17 0.59 6.56 1.45 c 1.53 0.95 3.36 1.36 5.18 1.45 c 3.61 3.47 4.9 9.54 4.4 12.78 c -0.22 1.49 -0.64 3.49 -1.08 5.61 c -0.32 1.59 -0.69 3.31 -1.01 5.07 c -7.09 -4.11 -16.01 -4.09 -23.16 0.3 l -2.31 1.41 c -0.19 -0.12 -0.39 -0.25 -0.59 -0.37 c -2.34 -1.46 -4.83 -2.59 -7.42 -3.36 c -1.56 -0.47 -3.15 -0.82 -4.75 -1.03 c -3.19 -0.43 -6.45 -0.36 -9.69 0.23 c -0.32 0.06 -0.68 0.15 -1.13 0.29 c -7.7 2.41 -13.13 9.49 -13.53 17.62 l -0.17 3.73 c -0.31 6.71 2.88 13.03 8.2 16.79 c 1.1 0.77 2.28 1.43 3.55 1.97 c 0.02 0.01 0.02 0.01 0.04 0.02 c 5.28 2.21 11.04 2.66 16.48 1.4 c 1.32 -0.31 2.62 -0.72 3.88 -1.22 c 1.11 -0.45 2.19 -0.97 3.24 -1.57 c 3.34 1.87 8.76 3.89 16.94 4.32 c 11.14 0.57 24.44 -1.99 39.53 -7.59 c 0.05 -0.03 0.1 -0.06 0.17 -0.08 c 2.22 -1.05 3.78 -2.99 4.62 -5.75 c 0.01 -0.05 0.03 -0.09 0.04 -0.13 c 0.3 -1.01 0.49 -2.1 0.58 -3.23 c 0.07 -0.7 0.1 -1.41 0.1 -2.13 C 315.42 338.9 314.43 334.3 313.41 330.72 z M 310.56 347.37 c -0.14 0.47 -0.32 0.89 -0.52 1.26 c -0.44 0.84 -1.01 1.43 -1.75 1.78 c -28.65 10.64 -44.01 7.54 -50.96 4.41 c 0.54 -0.44 1.11 -0.86 1.67 -1.25 c 0.98 -0.69 1.21 -2.04 0.53 -3.03 c -0.52 -0.74 -1.43 -1.06 -2.27 -0.86 c -0.27 0.06 -0.52 0.16 -0.75 0.33 c -0.98 0.69 -1.95 1.43 -2.86 2.21 c -1.03 0.88 -1.54 1.23 -1.75 1.36 c -6.11 3.76 -13.74 4.31 -20.4 1.5 c -0.96 -0.4 -1.86 -0.91 -2.69 -1.48 c -4.16 -2.91 -6.66 -7.85 -6.41 -13.09 l 0.17 -3.73 c 0.3 -6.32 4.51 -11.82 10.48 -13.68 c 0.38 -0.11 0.56 -0.15 0.62 -0.17 c 3.5 -0.63 7.04 -0.56 10.45 0.18 c 1.45 0.32 2.86 0.75 4.23 1.32 c 1.42 0.56 2.79 1.26 4.09 2.08 c 2.32 1.45 4.51 2.77 6.53 3.91 c 1.04 0.58 2.37 0.21 2.95 -0.83 c 0.19 -0.33 0.29 -0.7 0.29 -1.06 c 0 -0.76 -0.39 -1.49 -1.1 -1.89 c -0.52 -0.29 -1.05 -0.6 -1.59 -0.92 l 0.4 -0.25 c 6.25 -3.84 14.18 -3.53 20.11 0.67 c -0.34 2.45 -0.55 4.84 -0.5 6.97 c 0.02 1.19 1.02 2.14 2.22 2.11 c 1.19 -0.04 2.14 -1.03 2.11 -2.22 c -0.12 -4.49 1.15 -10.7 2.19 -15.69 c 0.48 -2.27 0.89 -4.24 1.13 -5.85 c 0.1 -0.61 0.14 -1.3 0.14 -2.04 c 0 -3.43 -1.03 -8.05 -3.57 -11.82 c 1.61 -0.31 2.81 -0.69 3.12 -0.79 c 0.91 -0.31 1.49 -1.15 1.49 -2.05 c 0 -0.23 -0.05 -0.46 -0.12 -0.69 c -0.36 -1.14 -1.59 -1.75 -2.74 -1.37 c -0.01 0 -1.8 0.59 -4 0.88 c -2.59 0.32 -4.69 0.1 -5.9 -0.66 c -2.2 -1.37 -5.33 -1.74 -8.35 -2.09 c -1.21 -0.14 -2.35 -0.28 -3.38 -0.46 c 5.85 -1.67 13.12 -0.14 13.19 -0.13 c 1.16 0.26 2.32 -0.49 2.57 -1.65 c 0.26 -1.16 -0.49 -2.33 -1.65 -2.58 c -0.11 -0.03 -0.99 -0.21 -2.36 -0.39 l -3.14 -4.11 c -0.73 -0.94 -2.09 -1.14 -3.04 -0.4 c -0.95 0.73 -1.14 2.08 -0.41 3.04 l 0.85 1.12 c -1.19 0.01 -2.46 0.09 -3.73 0.25 l -2.08 -4.86 l 8.9 -4.45 l 12.07 8.8 c 1.48 2.72 9.73 17.73 16.64 29.25 c 5.57 9.28 10.25 23.27 9.29 31.15 C 310.88 346.11 310.75 346.77 310.56 347.37 z" stroke-linecap="round"/>
</g>
</g>
</g>
</svg>